<svg width="150" height="151" viewBox="0 0 150 151" fill="none" xmlns="http://www.w3.org/2000/svg">
<path d="M77.6332 136.457C105.007 136.457 127.199 114.264 127.199 86.793C127.199 59.3216 104.909 37.1294 77.6332 37.1294C50.2596 37.1294 28.0674 59.3216 28.0674 86.793C28.0674 114.264 50.2596 136.457 77.6332 136.457Z" fill="#F1F3F9" stroke="#D6DCE8" stroke-width="2" stroke-miterlimit="10"/>
<path d="M106.844 37.1294C96.4521 57.6118 81.1988 65.7602 67.2185 70.6261C63.9739 71.771 60.4431 72.7729 57.103 71.9142C53.763 71.0555 50.8525 67.6684 51.759 64.329C52.5702 61.2282 56.5782 59.7016 59.4888 60.9419C62.4471 62.1823 64.0693 65.6171 63.7831 68.8133C63.4968 72.0096 61.5405 74.8242 59.0593 76.7801C56.5305 78.736 53.5245 79.9286 50.4707 80.835C43.743 82.8387 36.729 83.7928 30.1921 86.3212C23.6075 88.8495 17.3569 93.3816 15.1144 100.013C13.4921 104.735 14.1601 110.078 16.2595 114.563C18.3589 119.047 21.9375 122.816 25.9455 125.821C32.1007 130.401 39.6873 133.263 47.3216 133.072C54.9559 132.882 62.6856 129.542 67.4094 123.531C72.1331 117.52 73.5168 108.79 70.1768 101.873C67.8865 97.1026 62.6856 93.1907 57.4848 94.3357C53.3813 95.2898 50.3753 99.297 49.9459 103.543C49.5164 107.789 51.3773 111.987 54.1447 115.135C56.9122 118.331 60.5862 120.574 64.4033 122.53C69.9859 125.344 76.5705 127.491 82.344 125.106C87.8311 122.863 91.028 117.187 93.1274 111.7C95.2269 106.214 96.8014 100.251 100.619 95.7191C105.199 90.2807 112.929 87.7523 119.847 89.3743C126.766 90.9963 132.587 96.7209 134.305 103.59C135.641 108.933 134.019 115.612 129.009 117.95C125.096 119.81 120.277 118.475 116.889 115.803C113.501 113.132 111.211 109.315 109.016 105.594" stroke="#D6DCE8" stroke-width="2" stroke-miterlimit="10" stroke-dasharray="4 4"/>
<path d="M68.3888 59.9619C76.7425 62.7898 85.807 58.3103 88.6349 49.9566C91.4629 41.6029 86.9833 32.5384 78.6296 29.7105C70.2759 26.8826 61.2114 31.3621 58.3835 39.7158C55.5556 48.0695 60.0351 57.134 68.3888 59.9619Z" fill="white" stroke="#C5CCDA" stroke-width="2" stroke-miterlimit="10" stroke-linecap="round" stroke-linejoin="round"/>
<path d="M69.3475 57.1273C76.1359 59.4253 83.5018 55.7852 85.7999 48.9968C88.0979 42.2084 84.4577 34.8425 77.6694 32.5445C70.881 30.2465 63.515 33.8866 61.217 40.675C58.919 47.4633 62.5591 54.8293 69.3475 57.1273Z" fill="white" stroke="#D6DCE8" stroke-width="2" stroke-miterlimit="10" stroke-linejoin="round"/>
<path d="M72.966 46.4394C73.8515 46.7391 74.8122 46.2643 75.112 45.3789C75.4117 44.4934 74.9369 43.5327 74.0515 43.2329C73.166 42.9332 72.2053 43.408 71.9055 44.2934C71.6058 45.1789 72.0806 46.1396 72.966 46.4394Z" fill="white" stroke="#C5CCDA" stroke-width="2" stroke-miterlimit="10" stroke-linejoin="round"/>
<path d="M76.2227 36.8201L73.8708 43.7674" stroke="#C5CCDA" stroke-width="2" stroke-miterlimit="10" stroke-linejoin="round"/>
<path d="M75.2935 44.8445L79.3961 45.042" stroke="#C5CCDA" stroke-width="2" stroke-miterlimit="10" stroke-linejoin="round"/>
<path d="M77.2849 35.36C77.5454 35.2358 77.6434 34.9114 77.5038 34.6355C77.3642 34.3596 77.0399 34.2366 76.7793 34.3608C76.5188 34.485 76.4208 34.8094 76.5604 35.0853C76.7 35.3612 77.0243 35.4842 77.2849 35.36Z" fill="white" stroke="#D6DCE8" stroke-width="2" stroke-miterlimit="10" stroke-linejoin="round"/>
<path d="M70.5271 55.2946C70.7876 55.1704 70.8856 54.846 70.746 54.5701C70.6064 54.2942 70.2821 54.1712 70.0215 54.2954C69.761 54.4196 69.663 54.7439 69.8026 55.0199C69.9422 55.2958 70.2665 55.4188 70.5271 55.2946Z" fill="white" stroke="#D6DCE8" stroke-width="2" stroke-miterlimit="10" stroke-linejoin="round"/>
<path d="M63.9304 41.9726C64.1909 41.8484 64.2889 41.524 64.1493 41.2481C64.0097 40.9721 63.6854 40.8492 63.4248 40.9734C63.1643 41.0976 63.0663 41.4219 63.2059 41.6978C63.3455 41.9738 63.6698 42.0968 63.9304 41.9726Z" fill="white" stroke="#D6DCE8" stroke-width="2" stroke-miterlimit="10" stroke-linejoin="round"/>
<path d="M83.8649 48.7304C84.1255 48.6062 84.2235 48.2818 84.0839 48.0059C83.9443 47.73 83.62 47.607 83.3594 47.7312C83.0989 47.8554 83.0009 48.1797 83.1405 48.4557C83.2801 48.7316 83.6044 48.8546 83.8649 48.7304Z" fill="white" stroke="#D6DCE8" stroke-width="2" stroke-miterlimit="10" stroke-linejoin="round"/>
<path d="M25.511 64.6881L28.153 63.8918C28.3443 63.8363 28.3443 63.5585 28.153 63.5029L25.511 62.7066C25.4431 62.6881 25.3937 62.6387 25.3752 62.5708L24.5789 59.935C24.5233 59.7437 24.2455 59.7437 24.19 59.935L23.3937 62.5708C23.3751 62.6387 23.3258 62.6881 23.2579 62.7066L20.622 63.5029C20.4307 63.5585 20.4307 63.8363 20.622 63.8918L23.264 64.6881C23.3319 64.7067 23.3813 64.756 23.3998 64.8239L24.1961 67.4659C24.2517 67.6573 24.5295 67.6573 24.585 67.4659L25.3813 64.8239C25.3937 64.756 25.4431 64.7067 25.511 64.6881Z" fill="#D6DCE8"/>
<path d="M109.765 33.7632L112.467 34.3235C112.662 34.366 112.794 34.1218 112.653 33.9817L110.71 32.0216C110.659 31.973 110.64 31.906 110.656 31.8375L111.213 29.141C111.256 28.9463 111.011 28.8139 110.871 28.9555L108.914 30.8924C108.866 30.9432 108.799 30.9631 108.73 30.9469L106.034 30.3896C105.839 30.3471 105.706 30.5913 105.848 30.7314L107.79 32.6914C107.841 32.7401 107.861 32.8071 107.845 32.8756L107.285 35.5775C107.242 35.7722 107.486 35.9047 107.626 35.763L109.586 33.8207C109.63 33.7669 109.697 33.7471 109.765 33.7632Z" fill="#D6DCE8"/>
<path d="M108.105 100.603L110.169 98.7722C110.319 98.6415 110.203 98.3893 110.006 98.4192L107.273 98.8046C107.204 98.8163 107.139 98.7922 107.093 98.7383L105.265 96.6798C105.134 96.5294 104.882 96.6459 104.912 96.8429L105.295 99.5695C105.306 99.6389 105.282 99.7045 105.228 99.7498L103.17 101.578C103.019 101.709 103.136 101.961 103.333 101.931L106.065 101.546C106.134 101.534 106.2 101.558 106.245 101.612L108.076 103.676C108.207 103.827 108.459 103.71 108.429 103.513L108.044 100.781C108.027 100.714 108.051 100.649 108.105 100.603Z" fill="#D6DCE8"/>
<path d="M87.0821 81.9162L89.3938 81.2194C89.5613 81.1708 89.5613 80.9278 89.3938 80.8792L87.0821 80.1824C87.0227 80.1662 86.9795 80.123 86.9633 80.0636L86.2665 77.7574C86.2179 77.59 85.9748 77.59 85.9262 77.7574L85.2295 80.0636C85.2133 80.123 85.17 80.1662 85.1106 80.1824L82.8043 80.8792C82.6369 80.9278 82.6369 81.1708 82.8043 81.2194L85.116 81.9162C85.1754 81.9324 85.2187 81.9756 85.2349 82.035L85.9316 84.3466C85.9802 84.514 86.2233 84.514 86.2719 84.3466L86.9687 82.035C86.9795 81.9756 87.0227 81.9324 87.0821 81.9162Z" fill="#D6DCE8"/>
<path d="M42.7217 114.352L45.0335 113.555C45.2009 113.5 45.2009 113.222 45.0335 113.167L42.7217 112.37C42.6623 112.352 42.6191 112.302 42.6029 112.234L41.9062 109.599C41.8575 109.407 41.6145 109.407 41.5659 109.599L40.8691 112.234C40.8529 112.302 40.8097 112.352 40.7503 112.37L38.4439 113.167C38.2765 113.222 38.2765 113.5 38.4439 113.555L40.7557 114.352C40.8151 114.37 40.8583 114.42 40.8745 114.488L41.5713 117.13C41.6199 117.321 41.8629 117.321 41.9116 117.13L42.6083 114.488C42.6191 114.42 42.6623 114.37 42.7217 114.352Z" fill="#D6DCE8"/>
<path d="M38.9021 75.2618L40.5534 74.7642C40.673 74.7294 40.673 74.5558 40.5534 74.5211L38.9021 74.0235C38.8597 74.0119 38.8288 73.981 38.8172 73.9386L38.3195 72.2914C38.2848 72.1718 38.1112 72.1718 38.0765 72.2914L37.5788 73.9386C37.5672 73.981 37.5364 74.0119 37.4939 74.0235L35.8465 74.5211C35.7269 74.5558 35.7269 74.7294 35.8465 74.7642L37.4978 75.2618C37.5402 75.2734 37.5711 75.3043 37.5827 75.3467L38.0803 76.9978C38.1151 77.1174 38.2887 77.1174 38.3234 76.9978L38.8211 75.3467C38.8288 75.3043 38.8597 75.2734 38.9021 75.2618Z" fill="#D6DCE8"/>
<path d="M134.041 76.3524L135.692 75.8547C135.812 75.82 135.812 75.6464 135.692 75.6117L134.041 75.1141C133.998 75.1025 133.967 75.0716 133.956 75.0292L133.458 73.3819C133.423 73.2623 133.25 73.2623 133.215 73.3819L132.717 75.0292C132.706 75.0716 132.675 75.1025 132.633 75.1141L130.985 75.6117C130.866 75.6464 130.866 75.82 130.985 75.8547L132.636 76.3524C132.679 76.364 132.71 76.3948 132.721 76.4373L133.219 78.0884C133.254 78.208 133.427 78.208 133.462 78.0884L133.96 76.4373C133.967 76.3948 133.998 76.364 134.041 76.3524Z" fill="#D6DCE8"/>
<path d="M51.1072 52.2438L52.7584 51.7461C52.878 51.7114 52.878 51.5378 52.7584 51.5031L51.1072 51.0054C51.0648 50.9938 51.0339 50.963 51.0223 50.9205L50.5246 49.2733C50.4899 49.1537 50.3163 49.1537 50.2816 49.2733L49.7839 50.9205C49.7723 50.963 49.7414 50.9938 49.699 51.0054L48.0516 51.5031C47.932 51.5378 47.932 51.7114 48.0516 51.7461L49.7029 52.2438C49.7453 52.2553 49.7762 52.2862 49.7877 52.3286L50.2854 53.9797C50.3201 54.0993 50.4938 54.0993 50.5285 53.9797L51.0262 52.3286C51.0339 52.2862 51.0648 52.2553 51.1072 52.2438Z" fill="#D6DCE8"/>
<path d="M26.5164 107.693L28.1676 107.196C28.2872 107.161 28.2872 106.987 28.1676 106.953L26.5164 106.455C26.4739 106.443 26.4431 106.412 26.4315 106.37L25.9338 104.723C25.8991 104.603 25.7255 104.603 25.6907 104.723L25.1931 106.37C25.1815 106.412 25.1506 106.443 25.1082 106.455L23.4608 106.953C23.3412 106.987 23.3412 107.161 23.4608 107.196L25.112 107.693C25.1545 107.705 25.1853 107.736 25.1969 107.778L25.6946 109.429C25.7293 109.549 25.9029 109.549 25.9377 109.429L26.4354 107.778C26.4431 107.736 26.4739 107.705 26.5164 107.693Z" fill="#D6DCE8"/>
<path d="M71.9017 82.1808L75.1885 86.8661C76.1276 88.2047 76.7698 89.3236 77.2593 90.8349C79.0918 95.6843 78.4083 101.015 75.8866 105.352C75.4185 106.108 75.1802 106.989 75.2958 107.764C75.3158 108.606 75.5655 109.572 76.1021 110.337C77.1754 111.867 78.975 112.602 80.7832 112.332C86.5902 111.254 92.5628 113.057 96.6531 117.464C97.1512 117.97 97.5536 118.544 98.0232 119.213L101.31 123.899C101.712 124.472 102.019 125.113 102.355 125.591L74.243 145.312C73.812 144.901 73.3424 144.232 73.0071 143.753L69.7203 139.068C69.3849 138.59 69.1451 138.045 68.8098 137.567C68.6756 137.376 68.57 137.022 68.3688 136.735C65.7799 131.417 66.0895 125.351 69.0507 120.42C69.9869 118.907 69.8413 116.869 68.7681 115.339C68.2986 114.67 67.5707 114.039 66.7858 113.734C66.7187 113.638 66.6231 113.705 66.6231 113.705C65.8382 113.4 64.9961 113.42 64.1541 113.44C60.2509 114.18 56.2506 113.562 52.6413 111.672C51.7222 111.175 50.8032 110.678 50.0082 109.952C49.7785 109.828 49.5772 109.541 49.4431 109.35C48.5811 108.528 47.652 107.61 46.9141 106.558L43.6274 101.873C43.5603 101.777 43.4261 101.586 43.292 101.395L71.5949 81.54C71.7005 81.8939 71.7676 81.9896 71.9017 82.1808Z" fill="#F1F3F9" stroke="#D6DCE8" stroke-width="1.9781" stroke-miterlimit="10" stroke-linecap="round" stroke-linejoin="round"/>
<path d="M87.7446 127.137C87.7446 127.137 77.6305 136.515 76.9512 136.564C76.5017 136.736 72.5228 138.386 69.9882 139.451L69.3174 138.495C68.9821 138.017 68.6467 137.538 68.3398 136.898C68.464 136.668 68.5211 136.342 68.5782 136.017C69.8754 131.968 73.907 125.716 82.4042 126.033L87.7446 127.137Z" fill="#F1F3F9" stroke="#D6DCE8" stroke-width="1.9781" stroke-miterlimit="10" stroke-linecap="round" stroke-linejoin="round"/>
<path d="M71.9017 82.1808L75.1885 86.8661C76.1276 88.2047 76.7698 89.3236 77.2593 90.8349C79.0918 95.6843 78.4083 101.015 75.8866 105.352C75.4185 106.108 75.1802 106.989 75.2958 107.764C75.3158 108.606 75.5655 109.572 76.1021 110.337C77.1754 111.867 78.975 112.602 80.7832 112.332C86.5902 111.254 92.5628 113.057 96.6531 117.464C97.1512 117.97 97.5536 118.544 98.0232 119.213L101.31 123.899C101.712 124.472 102.019 125.113 102.355 125.591L74.243 145.312C73.812 144.901 73.3424 144.232 73.0071 143.753L69.7203 139.068C69.3849 138.59 69.1451 138.045 68.8098 137.567C68.6756 137.376 68.57 137.022 68.3688 136.735C65.7799 131.417 66.0895 125.351 69.0507 120.42C69.9869 118.907 69.8413 116.869 68.7681 115.339C68.2986 114.67 67.5707 114.039 66.7858 113.734C66.7187 113.638 66.6231 113.705 66.6231 113.705C65.8382 113.4 64.9961 113.42 64.1541 113.44C60.2509 114.18 56.2506 113.562 52.6413 111.672C51.7222 111.175 50.8032 110.678 50.0082 109.952C49.7785 109.828 49.5772 109.541 49.4431 109.35C48.5811 108.528 47.652 107.61 46.9141 106.558L43.6274 101.873C43.5603 101.777 43.4261 101.586 43.292 101.395L71.5949 81.54C71.7005 81.8939 71.7676 81.9896 71.9017 82.1808Z" fill="white" stroke="#C5CCDA" stroke-width="2" stroke-miterlimit="10"/>
<path d="M69.7404 101.674L58.5731 110.364L52.8046 111.7C51.8855 111.204 50.9664 110.707 50.1715 109.981C49.9417 109.856 49.7405 109.57 49.6063 109.378C52.6918 104.218 55.5303 100.942 63.7863 99.2882C65.1735 99.0285 66.4651 98.8358 68.0149 98.6046C81.8111 96.9161 69.7404 101.674 69.7404 101.674Z" fill="#F1F3F9" stroke="#C5CCDA" stroke-width="1.9781" stroke-miterlimit="10" stroke-linecap="round" stroke-linejoin="round"/>
<path d="M77.3265 90.9307C79.159 95.7801 78.4755 101.111 75.9538 105.448C75.4857 106.204 75.2474 107.085 75.363 107.86L75.2674 107.927C73.7375 109 73.3379 111.278 74.4111 112.807L84.4056 127.054L81.6327 129L71.5712 114.657C70.4979 113.127 68.3158 112.661 66.6903 113.801C65.9054 113.495 65.0634 113.515 64.2213 113.535C60.3181 114.276 56.3178 113.658 52.7086 111.767C51.7895 111.271 50.8704 110.774 50.0755 110.048C58.5898 108.355 61.4554 103.491 63.6617 99.518C64.3782 98.3021 64.9989 97.1532 65.6868 96.1C68.4098 92.0497 72.4271 90.6582 77.3265 90.9307Z" fill="#F1F3F9" stroke="#C5CCDA" stroke-width="2" stroke-miterlimit="10" stroke-linecap="round" stroke-linejoin="round"/>
<path d="M97.9278 119.281L101.215 123.966C101.617 124.54 101.924 125.18 102.259 125.658L77.2074 143.233L72.6048 143.18L69.6534 138.973C69.3181 138.495 68.9827 138.016 68.7429 137.471C68.6087 137.28 68.5031 136.926 68.3019 136.639C68.3975 136.572 68.4646 136.668 68.5602 136.601C68.7229 136.629 68.8185 136.562 68.9141 136.495C78.2319 134.524 80.7237 128.924 83.0827 124.558C83.4552 123.869 83.9233 123.113 84.3628 122.519C87.2484 118.497 91.4285 117.134 96.4906 117.435C96.9602 118.105 97.4582 118.611 97.9278 119.281Z" fill="#F1F3F9" stroke="#C5CCDA" stroke-width="2" stroke-miterlimit="10" stroke-linecap="round" stroke-linejoin="round"/>
<path d="M74.1989 81.9963L42.8363 103.997C42.1669 104.467 41.1908 104.296 40.7883 103.722L38.6418 100.662C38.1723 99.993 38.4106 99.1124 39.0799 98.6429L70.5382 76.5746C71.2075 76.105 72.1166 76.1807 72.5862 76.85L74.6655 79.8142C74.9438 80.6176 74.8682 81.5267 74.1989 81.9963Z" fill="white" stroke="#C5CCDA" stroke-width="2" stroke-miterlimit="10" stroke-linecap="round" stroke-linejoin="round"/>
<path d="M105.858 127.128L74.4957 149.129C73.8264 149.599 72.9173 149.523 72.4478 148.854L70.3684 145.89C69.8989 145.221 70.1372 144.34 70.8065 143.87L102.265 121.802C102.934 121.333 103.843 121.408 104.313 122.078L106.392 125.042C106.67 125.845 106.528 126.659 105.858 127.128Z" fill="white" stroke="#C5CCDA" stroke-width="2" stroke-miterlimit="10" stroke-linecap="round" stroke-linejoin="round"/>
<path d="M124.517 60.1951L123.084 62.8598C122.675 63.6211 122.299 64.19 121.701 64.78C119.846 66.7967 117.166 67.7392 114.519 67.5776C114.05 67.5361 113.578 67.6325 113.239 67.8711C112.846 68.0804 112.449 68.4277 112.215 68.8628C111.747 69.7329 111.827 70.7574 112.384 71.5474C114.271 74.0345 114.838 77.2834 113.727 80.2615C113.606 80.6171 113.431 80.9433 113.226 81.324L111.793 83.9887C111.618 84.3149 111.388 84.612 111.242 84.8839L95.2538 76.287C95.3457 75.9858 95.5503 75.6052 95.6966 75.3333L97.1294 72.6686C97.2756 72.3967 97.4762 72.1541 97.6224 71.8822C97.6809 71.7734 97.823 71.6395 97.9107 71.4764C99.8078 68.9913 102.747 67.6974 105.779 67.9256C106.716 68.0087 107.644 67.4562 108.111 66.5861C108.316 66.2054 108.441 65.7119 108.399 65.2686C108.428 65.2143 108.374 65.185 108.374 65.185C108.332 64.7418 108.123 64.3488 107.913 63.9558C106.637 62.288 105.979 60.2519 106.016 58.0982C106.032 57.5462 106.048 56.9942 106.203 56.4463C106.207 56.3083 106.295 56.1451 106.353 56.0364C106.537 55.4341 106.75 54.7774 107.071 54.1792L108.504 51.5146C108.533 51.4602 108.592 51.3514 108.65 51.2427L124.747 59.8981C124.605 60.032 124.576 60.0863 124.517 60.1951Z" fill="#F1F3F9" stroke="#D6DCE8" stroke-width="1.9781" stroke-miterlimit="10" stroke-linecap="round" stroke-linejoin="round"/>
<path d="M107.044 78.3499C107.044 78.3499 100.213 75.7988 100.029 75.4894C99.8407 75.3181 98.117 73.8303 97.0124 72.8859L97.3048 72.3421C97.451 72.0702 97.5973 71.7983 97.8271 71.5012C97.9651 71.5053 98.1323 71.4551 98.2996 71.4048C100.52 71.0564 104.43 71.4765 106.298 75.5652L107.044 78.3499Z" fill="#F1F3F9" stroke="#D6DCE8" stroke-width="1.9781" stroke-miterlimit="10" stroke-linecap="round" stroke-linejoin="round"/>
<path d="M124.517 60.1951L123.084 62.8598C122.675 63.6211 122.299 64.19 121.701 64.78C119.846 66.7967 117.166 67.7392 114.519 67.5776C114.05 67.5361 113.578 67.6325 113.239 67.8711C112.846 68.0804 112.449 68.4277 112.215 68.8628C111.747 69.7329 111.827 70.7574 112.384 71.5474C114.271 74.0345 114.838 77.2834 113.727 80.2615C113.606 80.6171 113.431 80.9433 113.226 81.324L111.793 83.9887C111.618 84.3149 111.388 84.612 111.242 84.8839L95.2538 76.287C95.3457 75.9858 95.5503 75.6052 95.6966 75.3333L97.1294 72.6686C97.2756 72.3967 97.4762 72.1541 97.6224 71.8822C97.6809 71.7734 97.823 71.6395 97.9107 71.4764C99.8078 68.9913 102.747 67.6974 105.779 67.9256C106.716 68.0087 107.644 67.4562 108.111 66.5861C108.316 66.2054 108.441 65.7119 108.399 65.2686C108.428 65.2143 108.374 65.185 108.374 65.185C108.332 64.7418 108.123 64.3488 107.913 63.9558C106.637 62.288 105.979 60.2519 106.016 58.0982C106.032 57.5462 106.048 56.9942 106.203 56.4463C106.207 56.3083 106.295 56.1451 106.353 56.0364C106.537 55.4341 106.75 54.7774 107.071 54.1792L108.504 51.5146C108.533 51.4602 108.592 51.3514 108.65 51.2427L124.747 59.8981C124.605 60.032 124.576 60.0863 124.517 60.1951Z" fill="white" stroke="#C5CCDA" stroke-width="2" stroke-miterlimit="10"/>
<path d="M114.797 63.8011L108.042 60.5892L106.041 58.1817C106.058 57.6297 106.074 57.0777 106.229 56.5297C106.233 56.3917 106.32 56.2286 106.379 56.1198C109.549 56.3522 111.77 56.9154 114.511 60.4224C114.963 61.0159 115.361 61.5803 115.838 62.2574C119.91 68.3731 114.797 63.8011 114.797 63.8011Z" fill="#F1F3F9" stroke="#C5CCDA" stroke-width="1.9781" stroke-miterlimit="10" stroke-linecap="round" stroke-linejoin="round"/>
<path d="M121.672 64.8343C119.817 66.851 117.137 67.7934 114.49 67.6319C114.021 67.5903 113.549 67.6868 113.21 67.9254L113.156 67.8961C112.286 67.4283 111.115 67.7802 110.647 68.6503L106.29 76.753L104.713 75.905L109.099 67.7479C109.567 66.8778 109.27 65.7364 108.345 65.2393C108.303 64.796 108.094 64.403 107.885 64.0101C106.608 62.3423 105.95 60.3061 105.987 58.1525C106.003 57.6004 106.02 57.0484 106.174 56.5005C108.995 60.1203 111.972 60.3193 114.373 60.4183C115.117 60.4681 115.807 60.4886 116.468 60.5635C119.027 60.8882 120.638 62.4554 121.672 64.8343Z" fill="#F1F3F9" stroke="#C5CCDA" stroke-width="2" stroke-miterlimit="10" stroke-linecap="round" stroke-linejoin="round"/>
<path d="M113.172 81.2946L111.739 83.9593C111.564 84.2856 111.334 84.5826 111.188 84.8545L96.9402 77.1933L95.8725 75.0069L97.1592 72.6141C97.3054 72.3422 97.4516 72.0703 97.6522 71.8276C97.7106 71.7189 97.8527 71.585 97.9405 71.4218C97.9948 71.4511 97.9656 71.5055 98.02 71.5347C98.0451 71.6183 98.0995 71.6476 98.1539 71.6768C101.297 75.6101 104.533 75.4576 107.155 75.5356C107.569 75.5479 108.038 75.5894 108.423 75.6561C111.007 76.0644 112.643 77.7153 113.703 80.1778C113.498 80.5584 113.377 80.914 113.172 81.2946Z" fill="#F1F3F9" stroke="#C5CCDA" stroke-width="2" stroke-miterlimit="10" stroke-linecap="round" stroke-linejoin="round"/>
<path d="M125.149 61.2358L107.313 51.6447C106.932 51.44 106.781 50.9383 106.957 50.612L107.892 48.8718C108.097 48.4911 108.569 48.3947 108.95 48.5994L126.841 58.2197C127.222 58.4244 127.402 58.8718 127.197 59.2524L126.291 60.9382C125.977 61.2604 125.53 61.4405 125.149 61.2358Z" fill="white" stroke="#C5CCDA" stroke-width="2" stroke-miterlimit="10" stroke-linecap="round" stroke-linejoin="round"/>
<path d="M111.348 86.9036L93.5108 77.3125C93.1301 77.1078 92.9501 76.6604 93.1547 76.2798L94.0612 74.594C94.2659 74.2133 94.7384 74.1169 95.1191 74.3215L113.01 83.9419C113.391 84.1466 113.571 84.5939 113.366 84.9746L112.46 86.6604C112.146 86.9826 111.728 87.1083 111.348 86.9036Z" fill="white" stroke="#C5CCDA" stroke-width="2" stroke-miterlimit="10" stroke-linecap="round" stroke-linejoin="round"/>
</svg>
