<svg width="16" height="16" viewBox="0 0 16 16" fill="none" xmlns="http://www.w3.org/2000/svg">
<path fill-rule="evenodd" clip-rule="evenodd" d="M1 8C4.86599 8 8 4.86599 8 1C8 4.86599 11.134 8 15 8C11.134 8 8 11.134 8 15C8 11.134 4.86599 8 1 8Z" fill="url(#paint0_linear_64038_5798)"/>
<path fill-rule="evenodd" clip-rule="evenodd" d="M1 8C4.86599 8 8 4.86599 8 1C8 4.86599 11.134 8 15 8C11.134 8 8 11.134 8 15C8 11.134 4.86599 8 1 8Z" fill="url(#paint1_linear_64038_5798)" fill-opacity="0.24"/>
<defs>
<linearGradient id="paint0_linear_64038_5798" x1="3.4375" y1="2.4375" x2="12.4063" y2="13" gradientUnits="userSpaceOnUse">
<stop stop-color="#E81F76" stop-opacity="0.8"/>
<stop offset="1" stop-color="#EB5324"/>
</linearGradient>
<linearGradient id="paint1_linear_64038_5798" x1="9.3125" y1="10.8438" x2="12.5937" y2="15.6563" gradientUnits="userSpaceOnUse">
<stop stop-color="#FFC208" stop-opacity="0"/>
<stop offset="1" stop-color="#FFC208"/>
</linearGradient>
</defs>
</svg>
