<svg width="152" height="152" viewBox="0 0 152 152" fill="none" xmlns="http://www.w3.org/2000/svg">
<path d="M122.309 69.8286H18.6386C16.3578 69.8286 14.3535 71.8329 14.3535 74.1137V145.439C14.3535 147.72 16.3578 146.89 18.6386 146.89H122.033C124.313 146.89 126.318 147.72 126.318 145.439V74.1137C126.594 71.8329 124.59 69.8286 122.309 69.8286Z" fill="#F1F3F9" stroke="#D6DCE8" stroke-width="2" stroke-miterlimit="10" stroke-linejoin="round"/>
<path d="M139.657 142.882V145.163C139.657 147.72 137.376 150.001 134.819 150.001H6.19831C3.6411 150.001 1.36035 147.72 1.36035 145.163V142.882H139.657Z" fill="white" stroke="#D6DCE8" stroke-width="2.1011" stroke-miterlimit="10"/>
<path d="M83.7441 142.882V143.711C83.7441 145.163 82.6382 146.545 80.9104 146.545H59.8307C58.3793 146.545 56.9971 145.439 56.9971 143.711V142.882H83.7441Z" fill="#F1F3F9" stroke="#D6DCE8" stroke-width="2" stroke-miterlimit="10" stroke-linejoin="round"/>
<path d="M114.223 79.1591V135.694C114.084 138.044 112.218 139.979 109.799 139.979H26.0336C23.5455 139.979 21.6104 138.044 21.6104 135.694V79.1591C21.6104 76.8092 23.5455 74.874 26.0336 74.874H109.868C112.357 74.874 114.223 76.8092 114.223 79.1591Z" fill="#F1F3F9" stroke="#D6DCE8" stroke-width="2.1011" stroke-miterlimit="10"/>
<path d="M26.6553 81.3706C27.4846 81.3706 28.1758 80.6795 28.1758 79.8501C28.1758 79.0207 27.4846 78.3296 26.6553 78.3296C25.8259 78.3296 25.1348 79.0207 25.1348 79.8501C25.1348 80.6795 25.8259 81.3706 26.6553 81.3706Z" fill="#D6DCE8"/>
<path d="M31.1484 81.3706C31.9778 81.3706 32.6689 80.6795 32.6689 79.8501C32.6689 79.0207 31.9778 78.3296 31.1484 78.3296C30.3191 78.3296 29.6279 79.0207 29.6279 79.8501C29.6279 80.6795 30.3191 81.3706 31.1484 81.3706Z" fill="#D6DCE8"/>
<path d="M35.7783 81.3706C36.6077 81.3706 37.2988 80.6795 37.2988 79.8501C37.2988 79.0207 36.6077 78.3296 35.7783 78.3296C34.9489 78.3296 34.2578 79.0207 34.2578 79.8501C34.2578 80.6795 34.9489 81.3706 35.7783 81.3706Z" fill="#F1F3F9"/>
<path opacity="0.4" d="M114.223 79.1591V134.035H31.978C29.4899 134.035 27.5547 132.1 27.5547 129.75V74.874H109.8C112.357 74.874 114.223 76.8092 114.223 79.1591Z" fill="#D6DDE8"/>
<path d="M123.761 69.6903V126.225C123.761 126.294 123.761 126.433 123.761 126.502C123.553 128.782 121.687 130.51 119.407 130.51H35.5717C33.0836 130.51 31.1484 128.575 31.1484 126.225V69.6903C31.1484 67.3405 33.0836 65.4053 35.5717 65.4053H119.407C121.895 65.4053 123.761 67.2713 123.761 69.6903Z" fill="#F1F3F9" stroke="#D6DCE8" stroke-width="2.1011" stroke-miterlimit="10"/>
<path d="M36.1943 71.9018C37.0237 71.9018 37.7148 71.2107 37.7148 70.3813C37.7148 69.552 37.0237 68.8608 36.1943 68.8608C35.365 68.8608 34.6738 69.552 34.6738 70.3813C34.6738 71.2107 35.365 71.9018 36.1943 71.9018Z" fill="#D6DCE8"/>
<path d="M40.6865 71.9018C41.5159 71.9018 42.207 71.2107 42.207 70.3813C42.207 69.552 41.5159 68.8608 40.6865 68.8608C39.8572 68.8608 39.166 69.552 39.166 70.3813C39.166 71.2107 39.8572 71.9018 40.6865 71.9018Z" fill="#D6DCE8"/>
<path d="M45.3174 71.9018C46.1467 71.9018 46.8379 71.2107 46.8379 70.3813C46.8379 69.552 46.1467 68.8608 45.3174 68.8608C44.488 68.8608 43.7969 69.552 43.7969 70.3813C43.7969 71.2107 44.488 71.9018 45.3174 71.9018Z" fill="#F1F3F9"/>
<path opacity="0.4" d="M123.76 69.6906V126.226C123.76 126.295 123.76 126.433 123.76 126.502H42.1371C39.6491 126.502 37.7139 124.567 37.7139 122.217V65.6129C37.7139 65.5438 37.7139 65.4055 37.7139 65.3364H119.337C121.894 65.4055 123.76 67.2716 123.76 69.6906Z" fill="#D6DDE8"/>
<path d="M133.574 118.07C133.436 120.42 131.57 122.355 129.151 122.355H45.3852C42.8971 122.355 40.9619 120.42 40.9619 118.07V61.535C40.9619 59.1852 42.8971 57.25 45.3852 57.25H129.22C131.708 57.25 133.643 59.1852 133.643 61.535V118.07H133.574Z" fill="white" stroke="#D6DCE8" stroke-width="2.1011" stroke-miterlimit="10"/>
<path d="M40.9619 67.1333H133.436" stroke="#D6DCE8" stroke-width="2.1011" stroke-miterlimit="10"/>
<path d="M46.0078 63.8157C46.8372 63.8157 47.5283 63.1245 47.5283 62.2952C47.5283 61.4658 46.8372 60.7056 46.0078 60.7056C45.1784 60.7056 44.4873 61.3967 44.4873 62.2261C44.4873 63.0554 45.1784 63.8157 46.0078 63.8157Z" fill="#AAB2C5"/>
<path d="M50.5 63.8157C51.3294 63.8157 52.0205 63.1245 52.0205 62.2952C52.0205 61.4658 51.3294 60.7056 50.5 60.7056C49.6706 60.7056 48.9795 61.3967 48.9795 62.2261C48.9795 63.0554 49.6706 63.8157 50.5 63.8157Z" fill="#AAB2C5"/>
<path d="M55.1299 63.8157C55.9592 63.8157 56.6504 63.1245 56.6504 62.2952C56.6504 61.4658 55.9592 60.7056 55.1299 60.7056C54.3005 60.7056 53.6094 61.3967 53.6094 62.2261C53.6094 63.0554 54.2314 63.8157 55.1299 63.8157Z" fill="#AAB2C5"/>
<path d="M81.1707 82.7533C81.1707 84.4239 79.8164 85.7781 78.1459 85.7781C76.4753 85.7781 75.1211 84.4239 75.1211 82.7533C75.1211 81.0828 76.4753 79.7285 78.1459 79.7285C79.8164 79.7285 81.1707 81.0828 81.1707 82.7533Z" fill="#AAB2C5" stroke="white"/>
<path d="M98.034 82.7533C98.034 84.4239 96.6797 85.7781 95.0092 85.7781C93.3386 85.7781 91.9844 84.4239 91.9844 82.7533C91.9844 81.0828 93.3386 79.7285 95.0092 79.7285C96.6797 79.7285 98.034 81.0828 98.034 82.7533Z" fill="#AAB2C5" stroke="white"/>
<path d="M93.9725 100.861H79.1822C76.8323 100.861 75.5192 98.2344 76.9015 96.2992C77.9382 94.8478 79.2513 93.6729 80.7718 92.7744C82.4997 91.8068 84.504 91.2539 86.5774 91.2539C89.0655 91.2539 91.3462 92.0142 93.2814 93.3273C94.4563 94.1567 95.493 95.1243 96.3224 96.2992C97.6355 98.2344 96.3224 100.861 93.9725 100.861Z" fill="#D6DCE8" stroke="#D6DCE8" stroke-width="1.7035" stroke-miterlimit="10"/>
<path d="M91.7609 100.861H81.463C81.3939 100.723 81.3939 100.584 81.463 100.446C82.2232 98.3037 84.2275 96.7832 86.6465 96.7832C89.0655 96.7832 91.0698 98.3037 91.83 100.446C91.83 100.584 91.83 100.723 91.7609 100.861Z" fill="#AAB2C5"/>
<path d="M93.2813 94.0187V94.5716C93.2813 94.9863 92.9357 95.2628 92.5901 95.2628H81.532C81.1173 95.2628 80.8408 94.9172 80.8408 94.5716V93.4658C82.5687 92.4982 84.573 91.9453 86.6464 91.9453C89.0653 91.9453 91.3461 92.7056 93.2813 94.0187Z" fill="white"/>
<path d="M60.7979 81.712C60.7979 83.0966 59.7228 84.2043 58.3789 84.2043C57.0351 84.2043 55.96 83.0966 55.96 81.712C55.96 80.6598 57.4113 77.5029 58.0564 76.1183C58.1639 75.8414 58.5402 75.8414 58.7015 76.1183C59.3465 77.4475 60.7979 80.6044 60.7979 81.712Z" fill="#D6DCE8"/>
<path d="M146.568 68.7919C147.674 69.8286 147.812 71.5565 146.776 72.7314C145.739 73.8372 144.011 73.9754 142.836 72.9387C141.938 72.1785 140.417 68.5846 139.795 66.995C139.657 66.7185 139.933 66.3729 140.279 66.442C141.938 66.8567 145.67 67.9625 146.568 68.7919Z" fill="#D6DCE8"/>
<path d="M146.153 81.025C146.983 82.3382 146.637 83.9969 145.324 84.8263C144.011 85.6556 142.352 85.3101 141.523 83.9969C140.901 83.0293 140.348 79.159 140.14 77.4311C140.071 77.0856 140.486 76.8782 140.762 77.0164C142.214 77.9149 145.531 79.9883 146.153 81.025Z" fill="#D6DCE8"/>
<path d="M55.2686 87.9323C55.2686 89.3168 54.1935 90.4245 52.8496 90.4245C51.5058 90.4245 50.4307 89.3168 50.4307 87.9323C50.4307 86.88 51.8821 83.7231 52.5271 82.3385C52.6346 82.0616 53.0109 82.0616 53.1722 82.3385C53.8172 83.7231 55.2686 86.88 55.2686 87.9323Z" fill="#D6DCE8"/>
<path d="M122.309 100.861H136.961C137.86 100.861 138.689 101.206 139.311 101.828L149.678 112.195C150.3 112.818 150.646 113.647 150.646 114.545V129.128C150.646 130.027 150.3 130.856 149.678 131.478L139.449 141.707C138.827 142.329 137.998 142.675 137.099 142.675H122.309C121.411 142.675 120.581 142.329 119.959 141.707L109.454 131.202C108.832 130.58 108.486 129.75 108.486 128.852V114.545C108.486 113.647 108.832 112.818 109.454 112.195L119.89 101.828C120.581 101.206 121.411 100.861 122.309 100.861Z" fill="#D6DCE8" stroke="#AAB2C5" stroke-width="2" stroke-miterlimit="10" stroke-linejoin="round"/>
<path d="M132.974 117.725L132.975 117.714L132.977 117.703C133.054 117.109 133.054 116.592 133.054 116.138V116.12V109.184C133.054 108.063 132.096 107.451 131.382 107.338L131.304 107.325H131.225H127.977C126.984 107.325 126.078 108.127 126.078 109.184V116.12L126.078 116.154C126.078 116.658 126.078 117.184 126.158 117.721L126.158 117.721L126.159 117.725L126.919 122.679L126.921 122.689L126.922 122.699C127.006 123.181 127.285 123.565 127.6 123.818C127.916 124.072 128.34 124.254 128.806 124.254H130.326C131.305 124.254 132.059 123.565 132.21 122.699L132.212 122.689L132.213 122.679L132.974 117.725Z" fill="white" stroke="#AAB2C5" stroke-width="2"/>
<path d="M127.838 134.69H131.225C132.33 134.69 133.262 133.758 133.262 132.653V129.267C133.262 128.161 132.33 127.23 131.225 127.23H127.838C126.733 127.23 125.802 128.161 125.802 129.267V132.653C125.802 133.758 126.733 134.69 127.838 134.69Z" fill="white" stroke="#AAB2C5" stroke-width="2"/>
</svg>
