<svg width="150" height="151" viewBox="0 0 150 151" fill="none" xmlns="http://www.w3.org/2000/svg">
<path d="M74.9951 150C109.488 150 137.45 122.018 137.45 87.5C137.45 52.9822 109.488 25 74.9951 25C40.5021 25 12.54 52.9822 12.54 87.5C12.54 122.018 40.5021 150 74.9951 150Z" fill="#F1F3F9" stroke="#D6DCE8" stroke-width="2" stroke-miterlimit="10"/>
<path d="M131.966 50.6472V123.746C131.966 126.425 129.76 128.632 127.083 128.632H22.9084C20.2306 128.632 18.0254 126.425 18.0254 123.746V50.6472C18.0254 47.9676 20.2306 45.7607 22.9084 45.7607H127.083C129.76 45.7607 131.966 47.9676 131.966 50.6472Z" fill="white" stroke="#D6DCE8" stroke-width="2" stroke-miterlimit="10"/>
<rect x="53.6914" y="60.8525" width="72.6744" height="31.9767" rx="2" fill="#F1F3F9"/>
<g opacity="0.3">
<path d="M92.8807 73.6393C93.7289 73.6393 94.4166 72.9462 94.4166 72.0911C94.4166 71.2361 93.7289 70.543 92.8807 70.543C92.0324 70.543 91.3447 71.2361 91.3447 72.0911C91.3447 72.9462 92.0324 73.6393 92.8807 73.6393Z" fill="#AAB2C5"/>
<path d="M92.9707 83.6917H81.2528C80.4968 83.6917 80.0558 82.8074 80.4968 82.2389L86.3558 74.0274C86.7338 73.5221 87.4898 73.5221 87.8678 74.0274L93.7267 82.2389C94.1677 82.8706 93.7267 83.6917 92.9707 83.6917Z" fill="#AAB2C5"/>
<path opacity="0.7" d="M97.0513 83.524H91.2842C90.4082 83.524 89.9702 82.6059 90.4082 81.9702L93.2552 78.0859C93.6932 77.5209 94.4962 77.5209 94.9342 78.0859L97.7813 81.9702C98.4383 82.6059 97.9273 83.524 97.0513 83.524Z" fill="#AAB2C5"/>
</g>
<rect x="53.6914" y="98.6436" width="22.2868" height="23.2558" rx="2" fill="#F1F3F9"/>
<rect x="79.8545" y="98.6436" width="20.3488" height="23.2558" rx="2" fill="#F1F3F9"/>
<rect x="104.079" y="98.6436" width="22.2868" height="23.2558" rx="2" fill="#F1F3F9"/>
<path d="M24.6221 63.7598H40.1259" stroke="#D6DCE8" stroke-width="2" stroke-miterlimit="10"/>
<path d="M24.6221 71.5117H37.219" stroke="#D6DCE8" stroke-width="2" stroke-miterlimit="10"/>
<path d="M57.5684 107.364H71.1343" stroke="#D6DCE8" stroke-width="2" stroke-miterlimit="10"/>
<path d="M83.7305 107.364H97.2964" stroke="#D6DCE8" stroke-width="2" stroke-miterlimit="10"/>
<path d="M108.924 107.364H122.49" stroke="#D6DCE8" stroke-width="2" stroke-miterlimit="10"/>
<path d="M57.5684 112.21H68.2273" stroke="#D6DCE8" stroke-width="2" stroke-miterlimit="10"/>
<path d="M83.7305 112.21H94.3894" stroke="#D6DCE8" stroke-width="2" stroke-miterlimit="10"/>
<path d="M108.924 112.21H119.583" stroke="#D6DCE8" stroke-width="2" stroke-miterlimit="10"/>
<path d="M24.6221 79.2637H41.0949" stroke="#D6DCE8" stroke-width="2" stroke-miterlimit="10"/>
<path d="M24.6221 87.0156H31.405" stroke="#D6DCE8" stroke-width="2" stroke-miterlimit="10"/>
<path d="M24.6221 94.7676H38.188" stroke="#D6DCE8" stroke-width="2" stroke-miterlimit="10"/>
<path d="M24.6221 102.52H33.343" stroke="#D6DCE8" stroke-width="2" stroke-miterlimit="10"/>
<path d="M131.966 50.6472V54.1939H18.0254V50.6472C18.0254 47.9676 20.2306 45.7607 22.9084 45.7607H127.083C129.76 45.7607 131.966 47.9676 131.966 50.6472Z" fill="#F1F3F9" stroke="#D6DCE8" stroke-width="2" stroke-miterlimit="10"/>
<path d="M23.1448 51.5145C23.9713 51.5145 24.6412 50.844 24.6412 50.017C24.6412 49.19 23.9713 48.5195 23.1448 48.5195C22.3184 48.5195 21.6484 49.19 21.6484 50.017C21.6484 50.844 22.3184 51.5145 23.1448 51.5145Z" fill="#AAB2C5"/>
<path opacity="0.6" d="M27.7913 51.5145C28.6178 51.5145 29.2877 50.844 29.2877 50.017C29.2877 49.19 28.6178 48.5195 27.7913 48.5195C26.9649 48.5195 26.2949 49.19 26.2949 50.017C26.2949 50.844 26.9649 51.5145 27.7913 51.5145Z" fill="#AAB2C5"/>
<path opacity="0.4" d="M32.5169 51.5145C33.3433 51.5145 34.0133 50.844 34.0133 50.017C34.0133 49.19 33.3433 48.5195 32.5169 48.5195C31.6905 48.5195 31.0205 49.19 31.0205 50.017C31.0205 50.844 31.6905 51.5145 32.5169 51.5145Z" fill="#AAB2C5"/>
<path d="M80.8232 86.0469L94.1751 96.2738C100.432 101.067 107.24 105.095 114.452 108.273L132.18 116.086" stroke="#AAB2C5" stroke-width="4" stroke-linecap="round" stroke-linejoin="round" stroke-dasharray="1.5 7"/>
<path d="M70.6484 85.5625L53.1604 98.0059C48.0349 101.653 42.5735 104.803 36.8502 107.414L17.8384 116.086" stroke="#AAB2C5" stroke-width="4" stroke-linecap="round" stroke-linejoin="round" stroke-dasharray="1.5 7"/>
<path d="M75.9785 79.7483L79.8299 79.2951C98.9441 77.0464 117.234 70.2216 133.149 59.3994V59.3994" stroke="#AAB2C5" stroke-width="4" stroke-linecap="round" stroke-linejoin="round" stroke-dasharray="1.5 7"/>
<path d="M75.0088 79.7483L71.1574 79.2951C52.0432 77.0464 33.7532 70.2216 17.8382 59.3994V59.3994" stroke="#AAB2C5" stroke-width="4" stroke-linecap="round" stroke-linejoin="round" stroke-dasharray="1.5 7"/>
<path d="M82.0237 108.056H68.7679C67.3075 108.056 66.1279 106.857 66.1279 105.371V86.693C66.1279 81.495 70.2844 77.3252 75.3396 77.3252C80.3948 77.3252 84.5513 81.5521 84.5513 86.693V105.429C84.6075 106.857 83.4279 108.056 82.0237 108.056ZM71.4078 102.744H79.3838V86.693C79.3838 84.4653 77.5864 82.6374 75.3958 82.6374C73.2052 82.6374 71.4078 84.4653 71.4078 86.693V102.744Z" fill="#D6DCE8" stroke="#AAB2C5" stroke-width="2" stroke-miterlimit="10"/>
<path opacity="0.3" d="M86.8663 117.054H63.8161C62.2506 117.054 60.9551 115.663 60.9551 113.983V97.588C60.9551 95.908 62.2506 94.5176 63.8161 94.5176H86.8663C88.4317 94.5176 89.7273 95.908 89.7273 97.588V113.983C89.7273 115.663 88.4317 117.054 86.8663 117.054Z" fill="#AAB2C5"/>
<path d="M87.6415 113.178H63.0399C61.3691 113.178 59.9863 111.787 59.9863 110.107V93.7121C59.9863 92.032 61.3691 90.6416 63.0399 90.6416H87.6415C89.3124 90.6416 90.6951 92.032 90.6951 93.7121V110.107C90.6951 111.787 89.3124 113.178 87.6415 113.178Z" fill="#D6DCE8" stroke="#AAB2C5" stroke-width="2" stroke-miterlimit="10"/>
<path d="M78.4113 99.0527C78.4113 100.332 77.7289 101.428 76.7621 101.976V105.509C76.7621 106.362 76.1366 107.032 75.3404 107.032C74.5443 107.032 73.9187 106.362 73.9187 105.509V101.976C72.9519 101.428 72.2695 100.332 72.2695 99.0527C72.2695 97.2255 73.6344 95.7637 75.3404 95.7637C77.0465 95.7637 78.4113 97.2255 78.4113 99.0527Z" fill="white" stroke="#AAB2C5" stroke-width="2" stroke-miterlimit="10"/>
</svg>
