<svg width="150" height="151" viewBox="0 0 150 151" fill="none" xmlns="http://www.w3.org/2000/svg">
<path d="M82.0496 149.06C110.05 149.06 132.75 126.36 132.75 98.26C132.75 70.16 109.95 47.46 82.0496 47.46C54.0496 47.46 31.3496 70.16 31.3496 98.26C31.3496 126.36 54.0496 149.06 82.0496 149.06Z" fill="#F1F3F9" stroke="#D6DCE8" stroke-width="2" stroke-miterlimit="10"/>
<path d="M129.45 64.9598C131.714 64.9598 133.55 63.1241 133.55 60.8598C133.55 58.5954 131.714 56.7598 129.45 56.7598C127.185 56.7598 125.35 58.5954 125.35 60.8598C125.35 63.1241 127.185 64.9598 129.45 64.9598Z" fill="#F1F3F9"/>
<path d="M135.45 48.9599C136.997 48.9599 138.25 47.7063 138.25 46.1599C138.25 44.6135 136.997 43.3599 135.45 43.3599C133.904 43.3599 132.65 44.6135 132.65 46.1599C132.65 47.7063 133.904 48.9599 135.45 48.9599Z" fill="#F1F3F9"/>
<path d="M34.05 64.8598C35.5964 64.8598 36.85 63.6062 36.85 62.0598C36.85 60.5134 35.5964 59.2598 34.05 59.2598C32.5036 59.2598 31.25 60.5134 31.25 62.0598C31.25 63.6062 32.5036 64.8598 34.05 64.8598Z" fill="#F1F3F9"/>
<path d="M16.95 118.86C19.8219 118.86 22.15 116.532 22.15 113.66C22.15 110.788 19.8219 108.46 16.95 108.46C14.0781 108.46 11.75 110.788 11.75 113.66C11.75 116.532 14.0781 118.86 16.95 118.86Z" fill="#F1F3F9"/>
<path d="M96.7501 71.2598L112.05 126.26C112.55 128.16 111.45 130.06 109.55 130.56L55.6501 144.86C53.7501 145.36 51.8501 144.26 51.3501 142.36L32.5501 71.3598C32.0501 69.4598 33.1501 67.5598 35.0501 67.0598L74.0501 56.7598L96.7501 71.2598Z" fill="white" stroke="#D6DCE8" stroke-width="2" stroke-miterlimit="10"/>
<path d="M66.9716 114.245L66.9717 114.245L66.9783 114.243L96.0716 106.545C96.0723 106.545 96.0729 106.544 96.0736 106.544C96.1142 106.535 96.195 106.54 96.2855 106.601C96.3727 106.659 96.4384 106.749 96.4601 106.858L96.4691 106.903L96.4861 106.945C96.5301 107.055 96.5179 107.157 96.4782 107.236C96.4346 107.323 96.3694 107.365 96.3291 107.375L96.3291 107.375L96.3225 107.376L67.2291 115.075L67.2258 115.075L64.0291 115.875L64.0291 115.875L64.0209 115.877L54.3267 118.475C54.2859 118.484 54.2054 118.479 54.1152 118.419C54.0281 118.361 53.9624 118.27 53.9407 118.162L53.9317 118.117L53.9146 118.074C53.8706 117.964 53.8828 117.863 53.9226 117.783C53.9662 117.696 54.0314 117.655 54.0716 117.645L54.0717 117.645L54.0798 117.643L63.7758 115.044L66.9716 114.245Z" fill="#D6DCE8" stroke="#D6DCE8"/>
<path d="M79.6793 103.543L79.6806 103.542L83.3757 102.544L83.3806 102.542L94.1715 99.7448C94.1715 99.7447 94.1716 99.7447 94.1717 99.7447C94.1764 99.744 94.2511 99.7374 94.3919 99.8342C94.5187 99.9214 94.6302 100.048 94.6929 100.164C94.7285 100.267 94.7155 100.361 94.678 100.436C94.6344 100.523 94.5692 100.565 94.5289 100.575L94.5247 100.576L83.7247 103.376L83.7197 103.377L80.0215 104.377L80.0197 104.377L52.6267 111.675C52.586 111.684 52.5054 111.679 52.415 111.619C52.3279 111.561 52.2622 111.47 52.2405 111.362L52.2315 111.317L52.2144 111.274C52.1704 111.164 52.1826 111.063 52.2224 110.983C52.266 110.896 52.3312 110.855 52.3715 110.845L52.3715 110.845L52.3793 110.843L79.6793 103.543Z" fill="#D6DCE8" stroke="#D6DCE8"/>
<path d="M50.4711 103.945L50.4711 103.945L50.4782 103.943L86.9711 94.2448L86.9782 94.2429L89.7711 93.5448L92.5576 92.8481C92.7839 92.8073 92.9284 92.9356 92.9647 93.081L92.9729 93.1139L92.9856 93.1454C93.0296 93.2554 93.0173 93.3566 92.9776 93.4361C92.934 93.5232 92.8688 93.5646 92.8285 93.5746L92.8285 93.5745L92.815 93.5782L90.3199 94.2769L87.2248 95.0756L87.2214 95.0765L50.7285 104.775C50.7278 104.775 50.7271 104.775 50.7264 104.775C50.6858 104.784 50.6051 104.779 50.5146 104.719C50.4275 104.661 50.3618 104.57 50.3401 104.462L50.3311 104.417L50.314 104.374C50.27 104.264 50.2822 104.163 50.322 104.083C50.3656 103.996 50.4308 103.955 50.4711 103.945Z" fill="#D6DCE8" stroke="#D6DCE8"/>
<path d="M75.4286 127.275L73.4286 127.775C73.3887 127.784 73.3068 127.78 73.2147 127.719C73.1276 127.66 73.0619 127.57 73.0402 127.462C73.0081 127.301 73.0283 127.156 73.0705 127.06C73.1118 126.966 73.1561 126.948 73.1712 126.945L75.1712 126.445C75.2111 126.435 75.293 126.439 75.385 126.501C75.4704 126.557 75.5351 126.645 75.5582 126.751C75.5952 126.981 75.5658 127.118 75.5343 127.186C75.5096 127.239 75.4803 127.262 75.4286 127.275Z" fill="#D6DCE8" stroke="#D6DCE8"/>
<path d="M69.3522 128.869L69.3381 128.872L69.3241 128.876L57.8276 131.875C57.7871 131.884 57.706 131.879 57.6151 131.819C57.528 131.761 57.4623 131.67 57.4406 131.562C57.4085 131.401 57.4287 131.256 57.4709 131.16C57.5122 131.066 57.5565 131.049 57.5716 131.045L57.5716 131.045L57.5765 131.043L69.073 128.044C69.1134 128.035 69.1945 128.04 69.2854 128.101C69.3726 128.159 69.4383 128.249 69.46 128.358L69.469 128.403L69.486 128.445C69.5444 128.591 69.5304 128.701 69.5047 128.759C69.4836 128.807 69.4444 128.851 69.3522 128.869Z" fill="#D6DCE8" stroke="#D6DCE8"/>
<mask id="path-12-inside-1_2103_332" fill="white">
<path d="M91.0506 85.4599L81.9506 87.8599L79.7506 88.4599L48.6506 96.6599C48.2506 96.7599 47.9506 97.2599 48.1506 97.7599C48.2506 98.2599 48.7506 98.5599 49.1506 98.4599L80.1506 90.3599L82.3506 89.7599L91.3506 87.3599C91.8506 87.2599 92.0506 86.7599 91.9506 86.1599C91.9506 85.7599 91.4506 85.3599 91.0506 85.4599Z"/>
</mask>
<path d="M91.0506 85.4599L81.9506 87.8599L79.7506 88.4599L48.6506 96.6599C48.2506 96.7599 47.9506 97.2599 48.1506 97.7599C48.2506 98.2599 48.7506 98.5599 49.1506 98.4599L80.1506 90.3599L82.3506 89.7599L91.3506 87.3599C91.8506 87.2599 92.0506 86.7599 91.9506 86.1599C91.9506 85.7599 91.4506 85.3599 91.0506 85.4599Z" fill="#D6DCE8"/>
<path d="M91.0506 85.4599L90.808 84.4897L90.7956 84.4929L91.0506 85.4599ZM81.9506 87.8599L81.6955 86.8929L81.6875 86.8951L81.9506 87.8599ZM79.7506 88.4599L80.0055 89.4269L80.0137 89.4246L79.7506 88.4599ZM48.6506 96.6599L48.8931 97.6301L48.9055 97.6268L48.6506 96.6599ZM48.1506 97.7599L49.1312 97.5638L49.1131 97.4737L49.0791 97.3885L48.1506 97.7599ZM49.1506 98.4599L49.3931 99.4301L49.4034 99.4274L49.1506 98.4599ZM80.1506 90.3599L80.4034 91.3275L80.4137 91.3246L80.1506 90.3599ZM82.3506 89.7599L82.0929 88.7936L82.0875 88.7951L82.3506 89.7599ZM91.3506 87.3599L91.1545 86.3793L91.1235 86.3855L91.0929 86.3936L91.3506 87.3599ZM91.9506 86.1599H90.9506V86.2426L90.9642 86.3243L91.9506 86.1599ZM90.7956 84.4929L81.6956 86.8929L82.2056 88.8268L91.3056 86.4268L90.7956 84.4929ZM81.6875 86.8951L79.4875 87.4951L80.0137 89.4246L82.2137 88.8246L81.6875 86.8951ZM79.4956 87.4929L48.3956 95.6929L48.9055 97.6268L80.0055 89.4268L79.4956 87.4929ZM48.408 95.6897C47.4025 95.9411 46.8039 97.0857 47.2221 98.1313L49.0791 97.3885C49.091 97.4185 49.0905 97.4662 49.07 97.5071C49.0571 97.5328 49.0125 97.6002 48.8931 97.63L48.408 95.6897ZM47.17 97.956C47.3729 98.9703 48.3951 99.6795 49.3931 99.43L48.908 97.4897C48.97 97.4742 49.0176 97.4786 49.0442 97.4841C49.0706 97.4897 49.0855 97.498 49.0928 97.5028C49.106 97.5116 49.1246 97.5311 49.1312 97.5638L47.17 97.956ZM49.4034 99.4274L80.4034 91.3274L79.8978 89.3924L48.8978 97.4924L49.4034 99.4274ZM80.4137 91.3246L82.6137 90.7246L82.0875 88.7951L79.8875 89.3951L80.4137 91.3246ZM82.6082 90.7261L91.6082 88.3261L91.0929 86.3936L82.0929 88.7936L82.6082 90.7261ZM91.5467 88.3405C92.1259 88.2246 92.5536 87.855 92.7804 87.3732C92.991 86.9257 93.0097 86.4318 92.937 85.9955L90.9642 86.3243C90.9768 86.4002 90.9771 86.4566 90.9737 86.4927C90.9703 86.5293 90.964 86.5359 90.9707 86.5216C90.9785 86.505 90.9999 86.4696 91.0429 86.4351C91.0874 86.3994 91.1307 86.3841 91.1545 86.3793L91.5467 88.3405ZM92.9506 86.1599C92.9506 85.5563 92.5968 85.0941 92.2684 84.8361C91.9376 84.5762 91.4011 84.3415 90.808 84.4897L91.2931 86.43C91.192 86.4553 91.1166 86.4414 91.0833 86.4318C91.0504 86.4223 91.0362 86.4114 91.0327 86.4087C91.0293 86.406 91.0162 86.3955 90.9998 86.367C90.9836 86.339 90.9506 86.2684 90.9506 86.1599H92.9506Z" fill="#D6DCE8" mask="url(#path-12-inside-1_2103_332)"/>
<path d="M43.6224 76.6764L43.607 76.6805L43.5918 76.6856C43.3197 76.7763 42.9606 76.6111 42.8242 76.2018C42.7345 75.9328 42.8951 75.5787 43.2944 75.4389L69.0773 68.6434L69.0928 68.6393L69.108 68.6343C69.3801 68.5436 69.7391 68.7088 69.8755 69.1181C69.9652 69.3871 69.8047 69.7412 69.4053 69.881L43.6224 76.6764Z" fill="#D6DCE8" stroke="#D6DCE8"/>
<path d="M45.3231 82.8762L45.3074 82.8804L45.292 82.8855C45.0199 82.9762 44.6608 82.811 44.5244 82.4017C44.4347 82.1326 44.5954 81.7784 44.9949 81.6387L54.7783 79.0431L54.7934 79.0391L54.8082 79.0342C55.0803 78.9435 55.4393 79.1087 55.5757 79.518C55.6703 79.8018 55.489 80.1509 55.1889 80.2852L45.3231 82.8762Z" fill="#D6DCE8" stroke="#D6DCE8"/>
<mask id="path-16-inside-2_2103_332" fill="white">
<path d="M74.0498 56.7598L78.0498 71.9598C78.6498 74.0598 80.9498 75.3598 83.0498 74.7598L96.7498 71.2598"/>
</mask>
<path d="M74.0498 56.7598L78.0498 71.9598C78.6498 74.0598 80.9498 75.3598 83.0498 74.7598L96.7498 71.2598" fill="#D6DCE8"/>
<path d="M78.0498 71.9598L77.0827 72.2143L77.0854 72.2244L77.0883 72.2345L78.0498 71.9598ZM83.0498 74.7598L82.8023 73.7909L82.7886 73.7944L82.7751 73.7982L83.0498 74.7598ZM73.0827 57.0143L77.0827 72.2143L79.0169 71.7053L75.0169 56.5053L73.0827 57.0143ZM77.0883 72.2345C77.8376 74.8571 80.6851 76.4754 83.3245 75.7213L82.7751 73.7982C81.2145 74.2441 79.462 73.2624 79.0113 71.685L77.0883 72.2345ZM83.2973 75.7286L96.9973 72.2286L96.5023 70.2909L82.8023 73.7909L83.2973 75.7286Z" fill="#D6DCE8" mask="url(#path-16-inside-2_2103_332)"/>
<path d="M137.15 86.7599L127.95 143.16C127.65 145.06 125.75 146.36 123.85 145.96L69.0505 136.36C67.1505 136.06 65.8505 134.16 66.1505 132.26L78.8505 59.9599C79.1505 58.0599 81.0505 56.7599 82.9505 57.1599L122.75 64.1599L137.15 86.7599Z" fill="white" stroke="#D6DCE8" stroke-width="2" stroke-miterlimit="10"/>
<path d="M92.1587 113.351L92.1587 113.351L92.1643 113.352L121.757 118.551C121.843 118.569 121.894 118.613 121.929 118.683C121.97 118.767 121.993 118.901 121.961 119.062L121.951 119.11V119.16C121.951 119.241 121.908 119.334 121.825 119.405C121.736 119.482 121.672 119.475 121.672 119.475L121.655 119.47L121.637 119.467L92.043 114.268L92.0402 114.268L88.843 113.668L88.843 113.668L88.8354 113.667L78.9615 111.972C78.8627 111.936 78.6859 111.734 78.7411 111.458L78.7508 111.409V111.36C78.7508 111.279 78.7933 111.186 78.8762 111.114C78.9659 111.038 79.0294 111.045 79.0296 111.045L79.0477 111.049L79.0662 111.053L88.9625 112.752L92.1587 113.351Z" fill="#D6DCE8" stroke="#D6DCE8"/>
<path d="M111.958 109.751L111.958 109.751L111.966 109.753L122.94 111.648C123.039 111.684 123.216 111.886 123.16 112.162L123.151 112.21V112.26C123.151 112.341 123.108 112.434 123.025 112.505C122.936 112.582 122.872 112.575 122.872 112.575L122.854 112.57L122.836 112.567L111.84 110.668L108.144 109.969L108.144 109.969L108.137 109.967L80.2619 105.072C80.1632 105.037 79.9856 104.835 80.0409 104.558L80.0506 104.509V104.46C80.0506 104.379 80.0931 104.286 80.176 104.215C80.2657 104.138 80.3292 104.145 80.3294 104.145L80.3466 104.149L80.3641 104.152L108.261 109.052L108.264 109.052L111.958 109.751Z" fill="#D6DCE8" stroke="#D6DCE8"/>
<path d="M118.565 103.652L118.566 103.653L121.466 104.153L124.358 104.651C124.446 104.67 124.484 104.713 124.505 104.76C124.531 104.819 124.545 104.928 124.486 105.074L124.451 105.164V105.26C124.451 105.341 124.408 105.434 124.325 105.505C124.236 105.582 124.172 105.575 124.172 105.575L124.151 105.57L124.13 105.566L121.636 105.167L118.443 104.569L118.443 104.568L118.437 104.567L81.2618 98.0718C81.163 98.0367 80.9856 97.8346 81.0409 97.558L81.0506 97.5095V97.46C81.0506 97.379 81.0931 97.2857 81.176 97.2146C81.2657 97.1377 81.3292 97.145 81.3294 97.145L81.3468 97.1494L81.3646 97.1525L118.565 103.652Z" fill="#D6DCE8" stroke="#D6DCE8"/>
<path d="M92.429 127.545L92.4523 127.551L92.4761 127.554L94.4426 127.849C94.5419 127.888 94.7146 128.088 94.66 128.362L94.6584 128.37L94.657 128.378C94.6243 128.574 94.5542 128.653 94.5079 128.689C94.4592 128.726 94.3857 128.754 94.2825 128.759L92.3579 128.47C92.2586 128.432 92.0859 128.231 92.1405 127.958C92.1717 127.802 92.2485 127.675 92.3269 127.602C92.3646 127.567 92.3945 127.553 92.4107 127.547C92.4233 127.543 92.4275 127.545 92.4288 127.545C92.4288 127.545 92.4289 127.545 92.429 127.545Z" fill="#D6DCE8" stroke="#D6DCE8"/>
<path d="M88.2717 127.675L88.2533 127.67L88.2347 127.667L76.561 125.672C76.4622 125.636 76.2855 125.434 76.3407 125.158C76.3719 125.002 76.4487 124.875 76.5271 124.802C76.5648 124.768 76.5947 124.753 76.6109 124.748C76.6235 124.744 76.6277 124.745 76.629 124.745C76.629 124.745 76.6291 124.745 76.6292 124.745L76.6475 124.75L76.6662 124.753L88.3398 126.748C88.4387 126.784 88.6154 126.986 88.5602 127.262L88.5586 127.27L88.5572 127.278C88.5223 127.488 88.4433 127.596 88.39 127.641C88.3431 127.681 88.3067 127.684 88.2717 127.675Z" fill="#D6DCE8" stroke="#D6DCE8"/>
<path d="M116.665 96.2527L116.666 96.2528L125.94 97.8483C126.038 97.8838 126.215 98.0857 126.16 98.362C126.129 98.5167 126.055 98.6372 125.975 98.7054C125.904 98.7666 125.832 98.7864 125.748 98.7698L125.749 98.7696L125.736 98.7674L116.536 97.1674L114.237 96.7677L114.236 96.7674L82.5618 91.172C82.4632 91.1372 82.2854 90.9349 82.3407 90.6581L82.3504 90.6096V90.5601C82.3504 90.4791 82.3929 90.3858 82.4758 90.3147C82.5655 90.2378 82.629 90.2451 82.6292 90.2451L82.6462 90.2494L82.6635 90.2524L114.363 95.8524L114.365 95.8527L116.665 96.2527Z" fill="#D6DCE8" stroke="#D6DCE8"/>
<path d="M86.7368 69.5675L86.7368 69.5675L86.7329 69.5668C86.4238 69.5153 86.1861 69.1888 86.2439 68.8422C86.2953 68.5337 86.6208 68.2962 86.9668 68.353C86.9673 68.3531 86.9679 68.3531 86.9685 68.3532L113.265 72.9526L113.265 72.9526L113.268 72.9532C113.575 73.0043 113.811 73.3258 113.759 73.6691C113.736 73.7721 113.647 73.9176 113.492 74.0325C113.337 74.1465 113.171 74.1894 113.034 74.1671C113.034 74.167 113.033 74.1669 113.033 74.1668L86.7368 69.5675Z" fill="#D6DCE8" stroke="#D6DCE8"/>
<path d="M95.7481 77.5695L95.7482 77.5693L95.7378 77.5675L85.6378 75.7675L85.6378 75.7675L85.6323 75.7666C85.3233 75.715 85.0855 75.3885 85.1433 75.0419C85.1946 74.7337 85.5196 74.4964 85.8651 74.5525L95.8615 76.3518L95.8615 76.3519L95.8679 76.3529C96.1769 76.4044 96.4146 76.731 96.3569 77.0775C96.2999 77.4193 95.9513 77.6101 95.7481 77.5695Z" fill="#D6DCE8" stroke="#D6DCE8"/>
<mask id="path-27-inside-3_2103_332" fill="white">
<path d="M122.65 64.1602L119.95 79.6602C119.55 81.8602 121.15 83.9602 123.35 84.3602L137.15 86.7602"/>
</mask>
<path d="M122.65 64.1602L119.95 79.6602C119.55 81.8602 121.15 83.9602 123.35 84.3602L137.15 86.7602" fill="#D6DCE8"/>
<path d="M119.95 79.6602L120.934 79.839L120.935 79.8318L119.95 79.6602ZM123.35 84.3602L123.171 85.3441L123.179 85.3454L123.35 84.3602ZM121.665 63.9885L118.965 79.4885L120.935 79.8318L123.635 64.3318L121.665 63.9885ZM118.966 79.4813C118.458 82.2767 120.481 84.855 123.171 85.344L123.529 83.3763C121.819 83.0653 120.642 81.4436 120.934 79.839L118.966 79.4813ZM123.179 85.3454L136.979 87.7454L137.321 85.7749L123.521 83.3749L123.179 85.3454Z" fill="#D6DCE8" mask="url(#path-27-inside-3_2103_332)"/>
<path d="M99.4504 137.86C111.766 137.86 121.75 127.876 121.75 115.56C121.75 103.244 111.766 93.2598 99.4504 93.2598C87.1344 93.2598 77.1504 103.244 77.1504 115.56C77.1504 127.876 87.1344 137.86 99.4504 137.86Z" fill="white"/>
<path d="M131.791 150C130.925 150 130.059 149.654 129.367 148.875L114.912 134.419L114.392 134.765C109.718 138.228 104.265 140.046 98.7251 140.046C92.06 140.046 85.395 137.362 80.4611 132.688C75.2676 127.754 72.4111 121.089 72.4111 113.818C72.4111 99.3628 84.1832 87.5908 98.6385 87.5908C108.506 87.5908 117.162 92.7844 121.836 101.613C126.424 110.356 125.818 120.57 120.192 128.793L119.845 129.312L134.387 143.854C135.859 145.326 135.513 146.797 135.253 147.576C134.561 148.961 133.176 150 131.791 150ZM98.6385 94.7752C88.0783 94.7752 79.5955 103.345 79.5955 113.818C79.5955 125.763 89.3767 132.948 98.8982 132.948C104.698 132.948 109.978 130.351 113.7 125.677C118.287 119.964 119.066 112.26 115.864 105.595C112.575 98.9301 105.996 94.7752 98.6385 94.7752Z" fill="#D6DCE8" stroke="#D6DCE8" stroke-width="2" stroke-miterlimit="10"/>
<path d="M97.3504 119.16C97.2504 118.76 97.2504 118.36 97.2504 117.86C97.2504 116.16 97.9504 114.66 99.7504 113.36L101.25 112.26C102.15 111.56 102.55 110.76 102.55 109.76C102.55 108.36 101.55 106.96 99.4504 106.96C97.2504 106.96 96.2504 108.76 96.2504 110.46C96.2504 110.86 96.2504 111.16 96.3504 111.46L92.3504 111.36C92.2504 110.96 92.1504 110.46 92.1504 109.96C92.1504 106.56 94.6504 103.36 99.3504 103.36C104.15 103.36 106.75 106.46 106.75 109.56C106.75 112.06 105.45 113.76 103.65 115.06L102.35 115.96C101.25 116.76 100.65 117.76 100.65 118.96V119.16H97.3504ZM99.0504 121.16C100.45 121.16 101.55 122.26 101.55 123.66C101.55 125.06 100.45 126.16 99.0504 126.16C97.6504 126.16 96.5504 125.06 96.5504 123.66C96.6504 122.36 97.6504 121.16 99.0504 121.16Z" fill="#B2C0D1"/>
</svg>
