<svg width="64" height="64" viewBox="0 0 64 64" fill="none" xmlns="http://www.w3.org/2000/svg">
<g clip-path="url(#clip0_3314_32121)">
<path fill-rule="evenodd" clip-rule="evenodd" d="M18.1898 55.9227C13.7816 57.1861 8.66759 55.5682 6.05421 51.0432L2.53533 44.9454C-0.0780511 40.4204 1.0788 35.1799 4.37855 31.9957C1.0788 28.8114 -0.0780511 23.5742 2.53533 19.046L6.05421 12.9482C8.66759 8.42323 13.7816 6.80532 18.1898 8.07193C19.2983 3.62107 23.2555 -0.00149536 28.479 -0.00149536H35.52C40.7468 -0.00149536 44.7039 3.62107 45.8124 8.07193C50.2174 6.80532 55.3314 8.42323 57.9448 12.9482L61.4669 19.046C64.0771 23.5742 62.9202 28.8114 59.6237 31.9957C62.9202 35.1799 64.0771 40.4204 61.4637 44.9454L57.9448 51.0432C55.3314 55.5682 50.2174 57.1861 45.8124 55.9227C44.7039 60.3703 40.7468 63.9929 35.52 63.9929H28.479C23.2555 63.9929 19.2983 60.3703 18.1898 55.9227Z" fill="url(#paint0_linear_3314_32121)"/>
<path fill-rule="evenodd" clip-rule="evenodd" d="M12 32C23.0457 32 32 23.0457 32 12C32 23.0457 40.9543 32 52 32C40.9543 32 32 40.9543 32 52C32 40.9543 23.0457 32 12 32Z" fill="white"/>
</g>
<defs>
<linearGradient id="paint0_linear_3314_32121" x1="18.99" y1="0.239091" x2="41.9606" y2="54.7321" gradientUnits="userSpaceOnUse">
<stop stop-color="#FFC208"/>
<stop offset="1" stop-color="#E31C79"/>
</linearGradient>
<clipPath id="clip0_3314_32121">
<rect width="64" height="64" fill="white"/>
</clipPath>
</defs>
</svg>