<svg width="200" height="146" viewBox="0 0 200 146" fill="none" xmlns="http://www.w3.org/2000/svg">
<path d="M136.263 50.2498C136.263 62.7981 126.284 73.1745 113.871 73.8985C113.384 73.8985 112.897 73.8985 112.41 73.8985C108.273 73.8985 104.135 72.6919 100.727 70.7614C93.4255 66.6591 88.5576 58.9371 88.5576 50.0085C88.5576 43.9757 90.7482 38.4255 94.6425 34.3232C99.0237 29.4969 105.352 26.3599 112.41 26.3599C121.66 26.3599 129.692 31.6687 133.586 39.3908C135.29 42.7691 136.263 46.3888 136.263 50.2498Z" fill="#F1F3F9" stroke="#D6DCE8" stroke-width="2" stroke-miterlimit="10"/>
<path opacity="0.1" d="M121.12 37.2289L121.12 37.2289L121.126 37.2299C125.397 37.9357 129.439 38.8724 133.259 39.8166C134.645 43.0844 135.554 46.5602 135.554 50.2501C135.554 62.5117 125.814 72.6611 113.686 73.3964C110.265 72.858 106.986 72.0568 103.817 71.2827C102.767 71.0261 101.729 70.7724 100.702 70.5324C93.5851 66.5061 88.8486 58.9654 88.8486 50.2501C88.8486 44.4128 90.9412 39.0488 94.6556 35.0586C102.601 34.8369 111.738 35.5593 121.12 37.2289Z" fill="#AAB2C5" stroke="#AAB2C5"/>
<path d="M165.157 66.2205C166.994 55.9863 144.344 43.431 114.568 38.1773C84.791 32.9237 59.1631 36.9612 57.3262 47.1954C55.4892 57.4296 78.1387 69.985 107.915 75.2386C137.692 80.4923 163.32 76.4547 165.157 66.2205Z" fill="#F1F3F9" stroke="#D6DCE8" stroke-width="2" stroke-miterlimit="10"/>
<path d="M100.874 40.9053C102.556 41.035 104.028 41.4896 105.046 42.0963C106.094 42.7209 106.523 43.4115 106.479 43.9824C106.434 44.5533 105.902 45.1698 104.769 45.6263C103.669 46.0698 102.144 46.2933 100.462 46.1637C98.7794 46.034 97.3077 45.5794 96.2895 44.9726C95.2416 44.3481 94.8123 43.6575 94.8571 43.0866C94.9019 42.5156 95.4336 41.8991 96.5664 41.4427C97.6669 40.9992 99.1918 40.7756 100.874 40.9053Z" fill="#D6DCE8" stroke="#D6DCE8"/>
<path d="M81.0369 43.8057C81.2014 44.3551 80.9273 45.1196 80.0348 45.9476C79.1676 46.7523 77.8246 47.5023 76.2073 47.9783C74.59 48.4544 73.0518 48.5524 71.8823 48.3473C70.6786 48.1363 70.0281 47.644 69.8635 47.0945C69.699 46.5451 69.9732 45.7806 70.8657 44.9525C71.7329 44.1479 73.0758 43.3979 74.6931 42.9219C76.3105 42.4458 77.8486 42.3478 79.0182 42.5528C80.2219 42.7639 80.8724 43.2562 81.0369 43.8057Z" fill="#D6DCE8" stroke="#D6DCE8"/>
<path d="M125.828 46.6742C127.489 46.9673 128.908 47.5632 129.861 48.2662C130.842 48.9899 131.201 49.719 131.1 50.2829C130.998 50.8468 130.408 51.4085 129.236 51.7522C128.096 52.0862 126.557 52.16 124.896 51.8669C123.235 51.5738 121.815 50.9779 120.862 50.2749C119.881 49.5512 119.523 48.8221 119.624 48.2582C119.725 47.6943 120.316 47.1326 121.488 46.7889C122.627 46.4549 124.167 46.3811 125.828 46.6742Z" fill="#D6DCE8" stroke="#D6DCE8"/>
<path d="M145.664 57.7675C147.164 58.534 148.342 59.5189 149.043 60.4696C149.763 61.4477 149.89 62.2497 149.624 62.76C149.359 63.2702 148.627 63.6335 147.405 63.6184C146.217 63.6038 144.725 63.2233 143.225 62.4567C141.726 61.6902 140.548 60.7053 139.847 59.7547C139.126 58.7766 139 57.9745 139.265 57.4643C139.531 56.954 140.263 56.5908 141.485 56.6058C142.672 56.6205 144.165 57.001 145.664 57.7675Z" fill="#D6DCE8" stroke="#D6DCE8"/>
<path d="M108.206 58.7613L85.3272 58.52L52.7441 119.124L144.197 128.742L134.006 66.966L108.206 58.7613Z" fill="url(#paint0_linear_2082_613)"/>
<path d="M156.152 144.997H39.0781C42.2423 142.161 46.8668 139.326 52.2215 137.199C55.1423 136.135 58.5498 134.717 61.9574 134.009C72.18 131.173 84.5932 129.4 97.7366 129.4C113.557 129.4 128.161 131.882 139.357 135.781C143.252 137.199 146.659 138.617 149.58 140.389C152.257 141.807 154.448 143.225 156.152 144.997Z" fill="#F1F3F9" stroke="#D6DCE8" stroke-width="2" stroke-miterlimit="10"/>
<path d="M62.6403 136.993C62.6618 137.195 62.5945 137.453 62.3796 137.759C62.1656 138.064 61.8264 138.383 61.3762 138.684C60.4762 139.286 59.201 139.768 57.8246 139.915C56.4359 140.063 55.1495 139.909 54.1805 139.564C53.4709 139.312 52.9924 138.981 52.7281 138.642C53.1183 138.499 53.5154 138.351 53.9186 138.201C56.278 137.322 58.8438 136.367 61.4479 135.699C62.249 136.035 62.5925 136.544 62.6403 136.993Z" fill="#D6DCE8" stroke="#D6DCE8"/>
<path d="M90.6534 133.02C90.6288 133.055 90.5585 133.133 90.3639 133.243C90.0651 133.412 89.5996 133.58 88.9811 133.728C87.7519 134.023 86.0282 134.209 84.1063 134.209C82.1845 134.209 80.4608 134.023 79.2316 133.728C78.6131 133.58 78.1475 133.412 77.8488 133.243C77.6542 133.133 77.5839 133.055 77.5593 133.02C77.5839 132.986 77.6542 132.908 77.8488 132.798C78.1475 132.629 78.6131 132.46 79.2316 132.312C80.4608 132.018 82.1845 131.831 84.1063 131.831C86.0282 131.831 87.7519 132.018 88.9811 132.312C89.5996 132.46 90.0651 132.629 90.3639 132.798C90.5585 132.908 90.6288 132.986 90.6534 133.02Z" fill="#D6DCE8" stroke="#D6DCE8"/>
<path d="M115.221 132.44C117.131 132.565 118.824 132.916 120.014 133.37C120.612 133.598 121.055 133.841 121.335 134.075C121.625 134.317 121.658 134.475 121.654 134.538C121.65 134.601 121.596 134.753 121.276 134.955C120.968 135.15 120.496 135.333 119.873 135.481C118.632 135.775 116.908 135.901 114.998 135.776C113.089 135.65 111.396 135.299 110.206 134.846C109.608 134.618 109.164 134.374 108.884 134.141C108.594 133.899 108.561 133.741 108.566 133.678C108.57 133.615 108.623 133.462 108.943 133.261C109.252 133.066 109.724 132.882 110.347 132.735C111.587 132.441 113.312 132.314 115.221 132.44Z" fill="#D6DCE8" stroke="#D6DCE8"/>
<path d="M145.84 140.054C145.546 140.003 145.238 139.934 144.912 139.841L144.888 139.834L144.863 139.829C142.979 139.493 141.317 138.944 140.158 138.347C139.575 138.046 139.143 137.746 138.872 137.472C138.68 137.278 138.603 137.134 138.575 137.038C141.222 138.032 143.674 139.001 145.84 140.054Z" fill="#D6DCE8" stroke="#D6DCE8"/>
<path d="M133.861 67.7198C134.685 63.1276 124.411 57.4741 110.912 55.0924C97.4132 52.7108 85.8021 54.5029 84.9779 59.0951C84.1536 63.6874 94.4282 69.3409 107.927 71.7225C121.426 74.1042 133.037 72.3121 133.861 67.7198Z" fill="#C8D0E0" stroke="#D6DCE8" stroke-width="2" stroke-miterlimit="10"/>
<path d="M46.4579 89.96C46.4579 89.96 38.0502 92.0946 40.598 93.8024C43.1458 95.4247 49.1755 98.2425 54.8655 96.364C60.5555 94.4855 54.8655 91.8385 54.9504 91.8385C55.0354 91.8385 46.4579 89.96 46.4579 89.96Z" fill="#CED7E2"/>
<path d="M36.1816 89.2765C39.239 90.2157 48.6657 88.6788 54.6954 84.751C59.4513 90.6427 61.2347 92.1796 62.9332 92.3504C60.3005 94.9974 51.5532 99.2667 46.6275 93.7166C40.8526 97.3882 36.1816 89.2765 36.1816 89.2765Z" fill="#E9EEF7"/>
<path d="M137.166 96.9626C140.393 97.1334 149.141 93.2056 153.896 87.9116C160.011 92.4371 162.049 93.4618 163.833 93.2056C161.879 96.4503 155.935 103.537 147.527 104.05C141.412 100.463 137.166 96.9626 137.166 96.9626Z" fill="#E9EEF7"/>
<path d="M109.198 97.0682C108.56 93.9002 102.577 86.407 96.2652 83.1197C99.1249 76.0706 99.6095 73.8414 98.9172 72.1779C102.546 73.2614 110.891 77.2535 113.481 85.2685C111.531 92.0837 109.198 97.0682 109.198 97.0682Z" fill="white"/>
<path d="M185.068 144.997H177.677H24.4639H14.916" stroke="#D5DAE8" stroke-width="2" stroke-miterlimit="10" stroke-linecap="round" stroke-linejoin="round"/>
<path d="M80.7512 125.608V130.435H77.8304V135.02H72.2323V130.435H60.0625V124.884L71.2587 109.44H77.587V125.608H80.7512ZM72.4757 115.715L65.4172 125.608H72.4757V115.715Z" fill="white" stroke="#D6DCE8" stroke-width="2" stroke-miterlimit="10" stroke-linejoin="round"/>
<path d="M96.2761 135.502C90.4346 135.502 85.3232 130.435 85.3232 122.23C85.3232 114.026 90.4346 108.958 96.2761 108.958C102.118 108.958 107.229 114.026 107.229 122.23C107.472 130.194 102.361 135.502 96.2761 135.502ZM96.2761 130.435C98.9534 130.435 101.874 127.78 101.874 121.989C101.874 116.439 99.1968 113.543 96.2761 113.543C93.5987 113.543 90.678 116.197 90.678 121.989C90.9214 127.78 93.5987 130.435 96.2761 130.435Z" fill="white" stroke="#D6DCE8" stroke-width="2" stroke-miterlimit="10" stroke-linejoin="round"/>
<path d="M132.976 125.608V130.435H130.055V135.02H124.457V130.435H112.287V124.884L123.483 109.44H129.812V125.608H132.976ZM124.457 115.715L117.398 125.608H124.457V115.715Z" fill="white" stroke="#D6DCE8" stroke-width="2" stroke-miterlimit="10" stroke-linejoin="round"/>
<defs>
<linearGradient id="paint0_linear_2082_613" x1="98.4765" y1="60.9594" x2="98.4765" y2="100.374" gradientUnits="userSpaceOnUse">
<stop stop-color="#BDC4D1" stop-opacity="0.53"/>
<stop offset="1" stop-color="#5D7CB8" stop-opacity="0"/>
</linearGradient>
</defs>
</svg>
