<svg width="256" height="202" viewBox="0 0 256 202" fill="none" xmlns="http://www.w3.org/2000/svg">
<path d="M89.6074 176.956H206.386" stroke="#CDD6E1" stroke-width="2.38568" stroke-miterlimit="10" stroke-linecap="round" stroke-linejoin="round"/>
<path d="M217.79 176.956H229.356" stroke="#CDD6E1" stroke-width="2.38568" stroke-miterlimit="10" stroke-linecap="round" stroke-linejoin="round"/>
<path d="M92.1659 168.083C95.7234 168.083 98.6073 165.199 98.6073 161.642C98.6073 158.084 95.7234 155.2 92.1659 155.2C88.6085 155.2 85.7246 158.084 85.7246 161.642C85.7246 165.199 88.6085 168.083 92.1659 168.083Z" fill="#B8BFCD"/>
<path d="M155.227 141.284C155.306 151.462 156.181 164.345 156.499 165.697C156.42 167.128 153.398 171.661 150.933 168.56C148.467 165.458 143.457 158.778 145.764 146.214C148.07 133.729 155.227 141.284 155.227 141.284Z" fill="#F1F3F9" stroke="#D6DCE8" stroke-width="1.59045" stroke-miterlimit="10"/>
<path d="M91.2914 168.003C91.2914 168.083 91.2914 168.242 91.3709 168.321C91.3709 168.401 91.4505 168.56 91.4505 168.639C91.53 168.719 91.53 168.878 91.6095 168.957C91.689 169.037 91.7685 169.116 91.8481 169.276C92.2457 169.832 92.9614 170.309 93.7566 170.786C93.9157 170.866 94.1542 170.946 94.3133 171.025C94.3928 171.105 94.5518 171.105 94.6314 171.184C94.7109 171.264 94.8699 171.264 94.9494 171.343L95.2675 171.423C95.6651 171.582 96.1423 171.741 96.6194 171.82C96.858 171.9 97.017 171.9 97.2556 171.979C97.4146 171.979 97.5737 172.059 97.8123 172.059C97.9713 172.059 98.1303 172.138 98.2894 172.138C99.5617 172.297 100.755 172.218 101.788 171.82C105.367 170.468 106.798 167.685 106.798 167.685C106.798 167.685 107.753 167.924 109.263 168.083C112.126 168.48 116.898 169.037 121.033 168.639C122.385 168.48 123.816 168.162 125.327 167.765C125.804 167.606 126.281 167.447 126.838 167.287C127.792 166.969 128.667 166.572 129.621 166.174C132.166 165.061 134.552 163.55 136.54 161.88C136.778 161.721 137.017 161.482 137.255 161.323C138.369 160.289 139.323 159.176 140.039 158.063C141.47 155.598 143.379 153.53 145.446 151.542C148.548 148.6 152.206 146.055 155.546 143.351C156.579 142.556 157.613 141.681 158.567 140.886C161.669 138.182 164.452 135.001 166.361 131.343C168.428 127.367 168.428 123.63 168.11 119.256C168.11 119.017 167.633 116.155 167.792 116.075C169.223 115.121 170.257 113.769 170.814 112.099C172.086 108.759 171.609 104.465 170.098 101.681C169.939 101.363 169.78 101.045 169.621 100.807C168.031 98.0234 166.122 94.7629 163.975 92.6158L160.078 88.7192H126.202C126.202 88.7192 125.804 91.0254 125.248 93.8882C125.168 94.1268 125.168 94.3653 125.088 94.6039C125.009 95.081 124.929 95.5582 124.77 96.0353C124.691 96.2739 124.691 96.5124 124.611 96.751C124.611 96.8305 124.611 96.8305 124.532 96.9101C124.452 97.4667 124.293 97.9438 124.214 98.5005C123.896 100.091 123.498 101.522 123.021 102.715C123.021 102.795 122.941 102.954 122.941 103.033C122.703 103.669 122.464 104.226 122.226 104.624C120.317 107.725 110.615 116.632 103.856 121.642C97.0966 126.651 93.9952 135.16 92.2457 148.918C90.2576 162.596 90.9733 165.379 91.2914 168.003Z" fill="white" stroke="#D6DCE8" stroke-width="1.59045" stroke-miterlimit="10" stroke-linejoin="round"/>
<path d="M152.365 164.266C156.898 163.789 156.818 164.266 159.363 164.266C161.907 164.266 162.544 165.538 163.498 166.731C164.055 167.526 164.85 169.832 165.327 171.502C165.645 172.457 164.929 173.331 163.975 173.411C161.112 173.411 155.943 173.49 155.069 173.411C153.796 173.252 151.092 172.934 149.9 170.946C149.502 170.23 149.263 169.276 149.025 168.321C148.707 166.492 149.9 164.663 151.808 164.425L152.365 164.266Z" fill="white" stroke="#D6DCE8" stroke-width="1.59045" stroke-miterlimit="10"/>
<path opacity="0.3" d="M91.2915 168.003C91.5301 170.627 98.0509 173.092 101.629 171.741C105.287 170.389 106.639 167.605 106.639 167.605C106.639 167.605 114.512 169.196 120.874 168.639C125.645 168.162 132.087 165.379 136.301 161.8L135.745 149.713C135.745 149.713 135.267 139.136 134.79 134.524C134.393 129.912 138.051 129.991 137.892 124.027C137.653 118.063 140.039 107.486 143.14 97.7846L132.325 89.6733L124.93 93.888C124.214 97.8642 123.021 102.874 121.987 104.703C120.079 107.804 110.377 116.711 103.618 121.721C96.8581 126.731 93.7567 135.24 92.0072 148.997C90.2577 162.595 90.9734 165.379 91.2915 168.003Z" fill="#C4D1E4"/>
<path opacity="0.2" d="M91.2916 168.003C91.2916 168.083 91.2916 168.242 91.3711 168.321C91.3711 168.401 91.4507 168.56 91.4507 168.639C91.5302 168.719 91.5302 168.878 91.6097 168.957C91.6892 169.037 91.7688 169.117 91.8483 169.276C92.2459 169.832 92.9616 170.309 93.7568 170.786C93.9159 170.866 94.1544 170.946 94.3135 171.025C94.393 171.105 94.552 171.105 94.6316 171.184C94.7111 171.264 94.8701 171.264 94.9497 171.343L95.2677 171.423C95.6654 171.582 96.1425 171.741 96.6196 171.82C96.8582 171.9 97.0172 171.9 97.2558 171.979C98.3691 171.264 99.0053 170.786 99.0053 170.786C99.0053 170.786 99.0053 170.786 98.5282 167.924C98.3691 167.049 98.2101 165.856 97.9715 164.266C96.9377 157.665 97.6534 144.624 106.48 145.021C105.526 138.341 109.184 130.946 112.365 126.254C115.626 121.642 118.011 124.186 120.794 127.367C121.113 126.015 119.681 120.608 117.932 115.836C121.51 120.131 124.691 121.642 133.2 122.437C129.383 119.256 128.906 117.586 125.804 110.588C129.701 112.417 137.653 114.564 142.425 115.2C153.955 116.711 163.896 116.155 170.576 112.099C171.848 108.759 171.371 104.465 169.86 101.681C169.701 101.363 169.542 101.045 169.383 100.807C163.259 100.25 152.842 99.3753 143.061 98.5005C135.904 97.8644 129.065 97.2282 124.453 96.8306C124.453 96.9101 124.453 96.9101 124.373 96.9896C124.293 97.5463 124.134 98.0234 124.055 98.5801C123.737 100.171 123.339 101.602 122.862 102.795C122.862 102.874 122.783 103.033 122.783 103.113C122.544 103.749 122.305 104.306 122.067 104.703C120.158 107.805 110.457 116.711 103.697 121.721C96.9377 126.731 93.8363 135.24 92.0868 148.997C90.2578 162.596 90.9735 165.379 91.2916 168.003Z" fill="#BFC8D6"/>
<path d="M137.017 172.695C137.017 172.695 136.381 163.073 136.301 161.8C136.221 160.926 131.053 165.061 126.281 156.234C121.51 147.407 120.794 145.816 120.953 143.59C119.522 154.803 123.975 162.357 124.85 166.413C125.725 170.468 126.52 170.309 126.52 170.309L134.552 171.9L137.017 172.695Z" fill="#DBDFE6"/>
<path d="M129.065 166.174C133.597 165.618 133.518 166.174 136.063 166.174C138.607 166.174 139.243 167.526 140.198 168.798C140.754 169.594 141.55 172.138 142.027 173.967C142.345 175.001 141.629 175.955 140.675 175.955C137.812 175.955 131.45 175.876 130.575 175.796C129.303 175.637 127.792 175.399 126.679 173.252C126.281 172.456 126.043 171.423 125.804 170.389C125.486 168.401 126.679 166.492 128.587 166.174H129.065Z" fill="white" stroke="#D6DCE8" stroke-width="1.59045" stroke-miterlimit="10"/>
<path d="M108.389 167.526C110.456 168.798 111.649 171.82 112.285 173.967C112.603 175.001 111.888 175.955 110.934 175.955C108.071 175.955 101.709 175.876 100.834 175.796C95.8242 175.16 95.2676 169.673 99.0847 167.526C101.47 166.095 106.003 166.015 108.389 167.526Z" fill="white" stroke="#D6DCE8" stroke-width="1.59045" stroke-miterlimit="10"/>
<path d="M163.457 105.681C162.748 106.344 161.949 106.94 161.14 107.457C160.037 108.177 158.845 108.829 157.642 109.403C153.953 111.134 150.028 112.337 145.878 112.528C142.448 112.696 138.804 112.493 135.442 111.447C134.272 111.132 133.08 110.659 132.045 110.164C126.085 107.24 122.689 104.832 122.218 98.1521C121.746 91.4718 122.051 86.2874 122.051 86.2874C122.051 85.7251 122.658 84.9154 122.827 84.4094C123.142 83.8021 123.367 83.1274 123.682 82.5201C124.233 81.3168 124.852 80.0236 125.493 78.8878C126.91 76.4363 128.698 74.3335 130.97 72.8043C134.637 70.3531 139.079 69.3977 143.432 68.9371C146.592 68.5664 149.865 68.4206 153.036 69.2532C155.791 69.9845 158.153 71.3344 160.267 73.2015C162.561 75.2036 164.36 77.678 166.373 79.9612C166.373 79.9612 168.115 84.8535 169.531 91.399C170.947 97.9444 168.349 101.127 163.457 105.681Z" fill="white" stroke="#D6DCE8" stroke-width="1.59045" stroke-miterlimit="10" stroke-linejoin="round"/>
<path d="M136.995 95.3196C136.163 96.2417 135.387 99.2443 130.81 98.1304C124.31 96.4876 123.793 88.3678 126.819 85.3655C132.229 79.9342 138.752 81.1721 140.55 87.0203C142.405 93.2622 138.671 93.5541 136.995 95.3196Z" fill="#F1F3F9" stroke="#D6DCE8" stroke-width="1.59045" stroke-miterlimit="10"/>
<path d="M124.29 76.0874C126.034 73.6697 128.609 74.266 127.72 77.0437C126.269 81.5083 123.367 83.6897 123.14 100.109C123.072 103.011 113.154 97.1164 112.739 86.8936C112.627 84.9817 114.932 84.251 114.932 84.251C116.316 83.8125 121.546 79.9332 124.29 76.0874Z" fill="#D6DCE8" stroke="#D6DCE8" stroke-width="1.59045" stroke-miterlimit="10"/>
<path d="M160.342 102.993C160.623 104.961 160.342 106.929 159.622 108.638C158.666 109.256 157.62 109.807 156.574 110.358C153.335 111.865 149.871 112.922 146.362 113.101C143.415 113.281 140.165 113.022 137.23 112.155C135.881 110.581 135.06 108.77 134.757 106.644C133.835 100.189 138.841 94.1729 145.926 93.1616C152.932 92.1616 159.421 96.5371 160.342 102.993Z" fill="#F1F3F9" stroke="#D6DCE8" stroke-width="1.59045" stroke-miterlimit="10"/>
<path d="M133.33 94.9596C135.895 94.5934 137.678 92.2171 137.312 89.6519C136.946 87.0866 134.569 85.3039 132.004 85.6701C129.439 86.0362 127.656 88.4125 128.022 90.9778C128.388 93.543 130.765 95.3257 133.33 94.9596Z" fill="white"/>
<path d="M136.906 90.1916C137.187 92.1597 135.77 94.0489 133.802 94.3298C131.833 94.6107 129.944 93.1935 129.663 91.2253C130.023 91.4953 130.451 91.6753 130.923 91.6079C131.789 91.4843 132.475 90.6634 132.34 89.7187C132.217 88.8527 131.407 88.2453 130.53 88.2902C131.081 87.6492 131.902 87.2107 132.768 87.0871C134.815 86.795 136.614 88.1447 136.906 90.1916Z" fill="#989FB0"/>
<path d="M159.151 91.274C161.717 90.9079 163.499 88.5315 163.133 85.9663C162.767 83.4011 160.391 81.6184 157.825 81.9845C155.26 82.3506 153.477 84.727 153.844 87.2922C154.21 89.8574 156.586 91.6402 159.151 91.274Z" fill="white"/>
<path d="M154.383 87.697C154.664 89.6651 156.553 91.0824 158.521 90.8015C160.489 90.5206 161.907 88.6314 161.626 86.6633C161.356 87.0231 160.996 87.3155 160.524 87.3829C159.658 87.5065 158.769 86.9103 158.634 85.9656C158.511 85.0997 159.118 84.29 159.973 84.0877C159.264 83.6265 158.354 83.4352 157.488 83.5588C155.519 83.8397 154.091 85.6502 154.383 87.697Z" fill="#989FB0"/>
<path d="M146.038 93.9488C145.408 94.0387 144.79 94.2073 144.182 94.4547C143.429 94.8032 142.304 95.3654 142.45 96.3888C142.63 97.6484 145.79 98.4023 146.577 98.2899C147.364 98.1775 150.199 96.6484 150.008 95.3101C149.828 94.0505 148.591 93.8254 147.545 93.814C147.061 93.8027 146.499 93.8027 146.038 93.9488Z" fill="#989FB0"/>
<path d="M146.858 98.0088L146.566 97.6488L146.386 98.0762C146.386 98.0762 146.543 100.865 146.037 101.821C146.509 102.316 146.903 102.26 147.049 102.159C147.296 102.204 147.69 102.147 147.926 101.551C147.342 100.832 146.858 98.0088 146.858 98.0088Z" fill="#989FB0"/>
<path d="M130.767 80.3841C129.71 80.8563 128.81 81.3061 128.113 82.0482C127.415 82.7904 126.92 83.825 126.752 84.8934C126.763 84.9721 126.684 84.9833 126.605 84.9946C126.527 85.0058 126.515 84.9271 126.515 84.9271C126.437 84.376 126.583 83.7125 126.752 83.2064C126.909 82.6216 127.236 82.0931 127.652 81.6321C128.068 81.171 128.495 80.7887 129.013 80.4739C129.541 80.2378 130.16 80.0692 130.733 80.148C130.823 80.2154 130.913 80.2829 130.767 80.3841C130.846 80.3729 130.846 80.3729 130.767 80.3841Z" fill="#989FB0"/>
<path d="M157.455 76.5753C158.602 76.7329 159.591 76.9129 160.468 77.4304C161.346 77.9478 162.11 78.8026 162.571 79.7811C162.582 79.8598 162.661 79.8486 162.74 79.8373C162.819 79.8261 162.807 79.7474 162.807 79.7474C162.729 79.1963 162.403 78.6002 162.099 78.1616C161.784 77.6442 161.323 77.228 160.795 76.9018C160.266 76.5756 159.749 76.3282 159.164 76.1706C158.591 76.0918 157.95 76.103 157.421 76.3391C157.353 76.4291 157.365 76.5078 157.455 76.5753C157.455 76.5753 157.376 76.5865 157.455 76.5753Z" fill="#989FB0"/>
<path d="M161.966 69.9065C159.616 68.0731 157.31 69.3661 158.94 71.7842C161.583 75.6645 164.979 76.947 169.79 92.6472C170.667 95.4139 178.541 86.9802 176.079 77.0495C175.652 75.1826 173.234 75.1261 173.234 75.1261C171.783 75.0922 165.677 72.8309 161.966 69.9065Z" fill="#D6DCE8" stroke="#D6DCE8" stroke-width="1.59045" stroke-miterlimit="10"/>
<path d="M26.6396 178.739H70.0589C71.4108 178.739 71.6494 180.727 70.2975 180.966C58.051 183.511 43.2599 184.544 51.7688 189.713C66.2419 198.461 88.8263 202.914 115.705 197.904C139.88 193.451 140.198 127.924 141.311 109.952C141.55 106.771 144.174 104.227 147.355 104.227H149.422C152.762 104.227 155.546 106.93 155.546 110.27V121.085" stroke="#AAB2C2" stroke-width="3.1809" stroke-miterlimit="10" stroke-linecap="round" stroke-linejoin="round"/>
<path d="M155.899 105.795C156.812 109.665 153.662 111.552 149.405 112.556C145.148 113.56 141.487 113.28 140.574 109.41C139.661 105.54 142.336 101.641 146.593 100.637C150.85 99.6327 154.986 101.925 155.899 105.795Z" fill="#D6DCE8" stroke="#D6DCE8" stroke-width="1.59045" stroke-miterlimit="10"/>
<path d="M151.808 141.284C151.013 141.284 150.377 140.648 150.377 139.852V134.286C150.377 133.491 151.013 132.854 151.808 132.854C152.604 132.854 153.24 133.491 153.24 134.286V139.852C153.24 140.727 152.604 141.284 151.808 141.284Z" fill="#989FB0"/>
<path d="M159.204 141.284C158.409 141.284 157.772 140.648 157.772 139.852V134.286C157.772 133.491 158.409 132.854 159.204 132.854C159.999 132.854 160.635 133.491 160.635 134.286V139.852C160.635 140.727 159.999 141.284 159.204 141.284Z" fill="#989FB0"/>
<path d="M162.942 134.366H148.31V132.696C148.31 128.64 151.57 121.642 155.626 121.642C159.681 121.642 162.942 128.64 162.942 132.696V134.366Z" fill="#D6DCE8" stroke="#D6DCE8" stroke-width="1.59045" stroke-miterlimit="10"/>
<path d="M224.73 137.149H194.591C193.319 137.149 192.364 136.115 192.364 134.922V102.795C192.364 101.523 193.398 100.568 194.591 100.568H224.73C226.002 100.568 226.957 101.602 226.957 102.795V134.922C227.036 136.115 226.002 137.149 224.73 137.149Z" fill="#F1F3F9" stroke="#D6DCE8" stroke-width="1.59045" stroke-miterlimit="10"/>
<path d="M220.993 118.223C220.993 121.96 219.164 125.38 216.381 127.447H202.782C199.999 125.38 198.17 122.04 198.17 118.223C198.17 114.485 199.999 111.066 202.782 108.998H216.381C219.164 111.145 220.993 114.485 220.993 118.223Z" fill="#D6DCE8" stroke="#D6DCE8" stroke-width="1.59045" stroke-miterlimit="10"/>
<path d="M205.327 118.859C204.77 118.859 204.293 118.381 204.293 117.825V114.405C204.293 113.849 204.77 113.372 205.327 113.372C205.883 113.372 206.361 113.849 206.361 114.405V117.825C206.361 118.381 205.883 118.859 205.327 118.859Z" fill="#989FB0"/>
<path d="M213.676 118.859C213.12 118.859 212.643 118.381 212.643 117.825V114.405C212.643 113.849 213.12 113.372 213.676 113.372C214.233 113.372 214.71 113.849 214.71 114.405V117.825C214.71 118.381 214.233 118.859 213.676 118.859Z" fill="#989FB0"/>
<path d="M210.495 123.789H208.428C207.951 123.789 207.474 123.391 207.474 122.835V121.801C207.474 120.688 208.348 119.813 209.462 119.813C210.575 119.813 211.45 120.688 211.45 121.801V122.835C211.45 123.312 211.052 123.789 210.495 123.789Z" fill="#989FB0"/>
<path d="M196.023 105.419C196.769 105.419 197.375 104.814 197.375 104.067C197.375 103.321 196.769 102.715 196.023 102.715C195.276 102.715 194.671 103.321 194.671 104.067C194.671 104.814 195.276 105.419 196.023 105.419Z" fill="#D2DAE7"/>
<path d="M223.457 105.419C224.204 105.419 224.809 104.814 224.809 104.067C224.809 103.321 224.204 102.715 223.457 102.715C222.711 102.715 222.105 103.321 222.105 104.067C222.105 104.814 222.711 105.419 223.457 105.419Z" fill="#D2DAE7"/>
<path d="M196.023 135.081C196.769 135.081 197.375 134.476 197.375 133.729C197.375 132.983 196.769 132.377 196.023 132.377C195.276 132.377 194.671 132.983 194.671 133.729C194.671 134.476 195.276 135.081 196.023 135.081Z" fill="#D2DAE7"/>
<path d="M223.457 135.081C224.204 135.081 224.809 134.476 224.809 133.729C224.809 132.983 224.204 132.377 223.457 132.377C222.711 132.377 222.105 132.983 222.105 133.729C222.105 134.476 222.711 135.081 223.457 135.081Z" fill="#D2DAE7"/>
<path d="M132.89 15.1699L137.766 16.9512L139.03 48.8304L136.381 47.7248L132.89 15.1699Z" fill="#B8BFCD"/>
<path d="M136.622 51.3491L139.03 52.5162V55.6488L136.622 54.666V51.3491Z" fill="#B8BFCD"/>
<path d="M143.123 31.2017L147.999 32.7987V53.3144L145.29 52.2088L143.123 31.2017Z" fill="#B8BFCD"/>
<path d="M145.531 55.6484L147.999 56.7541V59.7024L145.531 58.7811V55.6484Z" fill="#B8BFCD"/>
</svg>
