<svg width="150" height="151" viewBox="0 0 150 151" fill="none" xmlns="http://www.w3.org/2000/svg">
<path d="M82.0496 150C110.05 150 132.75 127.3 132.75 99.1999C132.75 71.0999 109.95 48.3999 82.0496 48.3999C54.0496 48.3999 31.3496 71.0999 31.3496 99.1999C31.3496 127.3 54.0496 150 82.0496 150Z" fill="#F1F3F9" stroke="#D6DFE8" stroke-width="2" stroke-miterlimit="10"/>
<path d="M129.45 65.8997C131.714 65.8997 133.55 64.0641 133.55 61.7997C133.55 59.5353 131.714 57.6997 129.45 57.6997C127.185 57.6997 125.35 59.5353 125.35 61.7997C125.35 64.0641 127.185 65.8997 129.45 65.8997Z" fill="#F1F3F9"/>
<path d="M135.45 49.8998C136.997 49.8998 138.25 48.6462 138.25 47.0998C138.25 45.5534 136.997 44.2998 135.45 44.2998C133.904 44.2998 132.65 45.5534 132.65 47.0998C132.65 48.6462 133.904 49.8998 135.45 49.8998Z" fill="#F1F3F9"/>
<path d="M34.05 65.7997C35.5964 65.7997 36.85 64.5461 36.85 62.9997C36.85 61.4533 35.5964 60.1997 34.05 60.1997C32.5036 60.1997 31.25 61.4533 31.25 62.9997C31.25 64.5461 32.5036 65.7997 34.05 65.7997Z" fill="#F1F3F9"/>
<path d="M16.95 119.8C19.8219 119.8 22.15 117.472 22.15 114.6C22.15 111.728 19.8219 109.4 16.95 109.4C14.0781 109.4 11.75 111.728 11.75 114.6C11.75 117.472 14.0781 119.8 16.95 119.8Z" fill="#F1F3F9"/>
<path d="M116.55 73.8L117.35 138.2C117.35 140.4 115.55 142.1 113.35 142.1H50.5498C48.3498 142.1 46.5498 140.3 46.5498 138.2V55.4C46.5498 53.2 48.3498 51.5 50.5498 51.5H96.0498L116.55 73.8Z" fill="white" stroke="#D6DFE8" stroke-width="2" stroke-miterlimit="10"/>
<path d="M77.1502 128.7H64.8502C64.7183 128.7 64.4502 128.526 64.4502 128.1C64.4502 127.674 64.7184 127.5 64.8502 127.5H77.1502C77.282 127.5 77.5502 127.674 77.5502 128.1C77.5502 128.356 77.4779 128.507 77.4099 128.585C77.3452 128.66 77.2597 128.7 77.1502 128.7Z" fill="#D6DCE8" stroke="#D6DCE8"/>
<path d="M70.1496 129.2H56.7496C56.2496 129.2 55.8496 128.7 55.8496 128.1C55.8496 127.5 56.2496 127 56.7496 127H70.1496C70.6496 127 71.0496 127.5 71.0496 128.1C71.0496 128.8 70.6496 129.2 70.1496 129.2Z" fill="#D5DDEA"/>
<path d="M87.2496 64.4999H57.1496C56.7258 64.4999 56.3496 64.1238 56.3496 63.6999C56.3496 63.276 56.7258 62.8999 57.1496 62.8999H87.2496C87.6735 62.8999 88.0496 63.276 88.0496 63.6999C88.0496 64.1238 87.6735 64.4999 87.2496 64.4999Z" fill="#D6DCE8" stroke="#D6DCE8"/>
<path d="M68.7496 71.6996H57.1496C56.7258 71.6996 56.3496 71.3235 56.3496 70.8996C56.3496 70.4758 56.7258 70.0996 57.1496 70.0996H68.6496C69.0735 70.0996 69.4496 70.4758 69.4496 70.8996C69.4496 71.1063 69.3598 71.3118 69.2116 71.4682C69.0604 71.6278 68.885 71.6996 68.7496 71.6996Z" fill="#D6DCE8" stroke="#D6DCE8"/>
<mask id="path-11-inside-1_2103_331" fill="white">
<path d="M96.0498 51.5V69.3C96.0498 71.8 98.2498 73.8 100.75 73.8H116.55"/>
</mask>
<path d="M96.0498 51.5V69.3C96.0498 71.8 98.2498 73.8 100.75 73.8H116.55" fill="#D6DCE8"/>
<path d="M95.0498 51.5V69.3H97.0498V51.5H95.0498ZM95.0498 69.3C95.0498 72.4077 97.7546 74.8 100.75 74.8V72.8C98.745 72.8 97.0498 71.1923 97.0498 69.3H95.0498ZM100.75 74.8H116.55V72.8H100.75V74.8Z" fill="#D6DCE8" mask="url(#path-11-inside-1_2103_331)"/>
<path d="M72.9159 112.395H107.612C107.664 112.395 107.741 112.417 107.832 112.527C107.921 112.636 108.005 112.812 108.044 113.05C108.029 113.465 107.741 113.638 107.612 113.638H72.9159H69.0918H57.5264C57.4292 113.638 57.3324 113.593 57.2452 113.481C57.1539 113.363 57.0938 113.192 57.0938 113.016C57.0938 112.576 57.3941 112.395 57.5264 112.395H69.0918H72.9159Z" fill="#D6DCE8" stroke="#D6DCE8"/>
<path d="M94.6476 104.263H107.519C107.57 104.263 107.648 104.286 107.739 104.396C107.828 104.504 107.911 104.681 107.951 104.919C107.936 105.334 107.648 105.506 107.519 105.506H94.6476H90.2639H57.5264C57.4292 105.506 57.3324 105.462 57.2452 105.349C57.1539 105.232 57.0938 105.061 57.0938 104.885C57.0938 104.445 57.3941 104.263 57.5264 104.263H90.2639H94.6476Z" fill="#D6DCE8" stroke="#D6DCE8"/>
<path d="M108.145 96.5777L108.138 96.6184V96.6597C108.138 97.0995 107.838 97.2813 107.705 97.2813H104.814H101.083H57.5264C57.4292 97.2813 57.3324 97.2366 57.2452 97.1242C57.1539 97.0065 57.0938 96.8354 57.0938 96.6597C57.0938 96.2199 57.3941 96.0381 57.5264 96.0381H101.083H104.441H107.799C107.834 96.0381 107.935 96.0684 108.033 96.1952C108.126 96.315 108.165 96.4577 108.145 96.5777Z" fill="#D6DCE8" stroke="#D6DCE8"/>
<path d="M71.237 130.027H57.5264C57.0601 130.027 56.5938 129.56 56.5938 128.906C56.5938 128.345 56.9668 127.784 57.5264 127.784H71.237C71.7034 127.784 72.1697 128.252 72.1697 128.906C72.1697 129.654 71.7034 130.027 71.237 130.027Z" fill="#E3EAF2"/>
<path d="M97.2591 87.9062H108.172C108.269 87.9062 108.366 87.951 108.453 88.0633C108.544 88.181 108.604 88.3521 108.604 88.5279C108.604 88.7632 108.538 88.9165 108.461 89.0036C108.391 89.0829 108.277 89.1495 108.078 89.1495H97.2591H94.5543H57.5264C57.4292 89.1495 57.3324 89.1047 57.2452 88.9924C57.1539 88.8747 57.0938 88.7036 57.0938 88.5279C57.0938 88.088 57.3941 87.9062 57.5264 87.9062H94.5543H97.2591Z" fill="#D6DCE8" stroke="#D6DCE8"/>
<path d="M58.2721 134.981H36.2606C33.8356 134.981 31.877 133.018 31.877 130.588V100.024C31.877 91.5189 38.7789 84.6958 47.1731 84.6958C55.5673 84.6958 62.4693 91.6124 62.4693 100.024V130.682C62.5625 133.018 60.6039 134.981 58.2721 134.981ZM40.6443 126.289H53.8885V100.024C53.8885 96.3792 50.9039 93.3883 47.2664 93.3883C43.6289 93.3883 40.6443 96.3792 40.6443 100.024V126.289Z" fill="#D6DCE8" stroke="#D6DCE8" stroke-width="2" stroke-miterlimit="10"/>
<path d="M67.319 143.3H27.4931C24.7883 143.3 22.5498 141.056 22.5498 138.346V111.895C22.5498 109.184 24.7883 106.941 27.4931 106.941H67.319C70.0238 106.941 72.2623 109.184 72.2623 111.895V138.346C72.2623 141.056 70.0238 143.3 67.319 143.3Z" fill="#D6DCE8" stroke="#D6DCE8" stroke-width="2" stroke-miterlimit="10"/>
<path d="M50.3056 125.953C51.6513 125.018 52.5629 123.45 52.5629 121.65C52.5629 118.759 50.249 116.438 47.3596 116.438C44.4701 116.438 42.1562 118.759 42.1562 121.65C42.1562 123.45 43.0678 125.018 44.4136 125.953V129.918C44.4136 131.561 45.7155 132.868 47.3596 132.868C49.0036 132.868 50.3056 131.561 50.3056 129.918V125.953Z" fill="white" stroke="#AAB2C5" stroke-width="2"/>
</svg>
