<svg width="150" height="151" viewBox="0 0 150 151" fill="none" xmlns="http://www.w3.org/2000/svg">
<path d="M133.85 99.1999C133.85 113.4 128.05 126.2 118.75 135.4C109.65 144.5 97.0502 150 83.1502 150C69.3502 150 56.7502 144.4 47.5502 135.4C38.2502 126.2 32.4502 113.4 32.4502 99.1999C32.4502 71.0999 55.1502 48.3999 83.1502 48.3999C111.15 48.3999 133.85 71.1999 133.85 99.1999Z" fill="#F1F3F9" stroke="#D6DCE8" stroke-width="2" stroke-miterlimit="10"/>
<path d="M76.1192 53.6108L72.3583 66.876L81.3608 73.1152L80.7277 88.3568L92.0905 67.5031L86.8127 63.2864L92.8488 53.6108H99.6251L120.125 75.9108L120.925 140.311C120.925 142.511 119.125 144.211 116.925 144.211H54.1251C51.925 144.211 50.125 142.411 50.125 140.311V57.5109C50.125 55.3109 51.925 53.6108 54.1251 53.6108H76.1192Z" fill="white" stroke="#D6DCE8" stroke-width="2" stroke-miterlimit="10" stroke-linejoin="round"/>
<path d="M129.45 65.8997C131.714 65.8997 133.55 64.0641 133.55 61.7997C133.55 59.5353 131.714 57.6997 129.45 57.6997C127.185 57.6997 125.35 59.5353 125.35 61.7997C125.35 64.0641 127.185 65.8997 129.45 65.8997Z" fill="#F1F3F9"/>
<path d="M135.45 49.8998C136.997 49.8998 138.25 48.6462 138.25 47.0998C138.25 45.5534 136.997 44.2998 135.45 44.2998C133.904 44.2998 132.65 45.5534 132.65 47.0998C132.65 48.6462 133.904 49.8998 135.45 49.8998Z" fill="#F1F3F9"/>
<path d="M34.05 65.7997C35.5964 65.7997 36.85 64.5461 36.85 62.9997C36.85 61.4533 35.5964 60.1997 34.05 60.1997C32.5036 60.1997 31.25 61.4533 31.25 62.9997C31.25 64.5461 32.5036 65.7997 34.05 65.7997Z" fill="#F1F3F9"/>
<path d="M16.95 119.8C19.8219 119.8 22.15 117.472 22.15 114.6C22.15 111.728 19.8219 109.4 16.95 109.4C14.0781 109.4 11.75 111.728 11.75 114.6C11.75 117.472 14.0781 119.8 16.95 119.8Z" fill="#F1F3F9"/>
<path d="M71.9791 66.6107H59.8791C59.4552 66.6107 59.0791 66.2346 59.0791 65.8107C59.0791 65.3869 59.4552 65.0107 59.8791 65.0107H71.9791C72.403 65.0107 72.7791 65.3869 72.7791 65.8107C72.7791 66.2346 72.403 66.6107 71.9791 66.6107Z" fill="#D6DCE8" stroke="#D6DCE8"/>
<path d="M71.4791 73.8109H59.8791C59.4552 73.8109 59.0791 73.4348 59.0791 73.0109C59.0791 72.5871 59.4552 72.2109 59.8791 72.2109H71.3791C71.803 72.2109 72.1791 72.5871 72.1791 73.0109C72.1791 73.2176 72.0893 73.4231 71.9411 73.5796C71.7899 73.7392 71.6145 73.8109 71.4791 73.8109Z" fill="#D6DCE8" stroke="#D6DCE8"/>
<mask id="path-9-inside-1_2103_279" fill="white">
<path d="M98.7793 53.6108V71.4108C98.7793 73.9108 100.979 75.9108 103.479 75.9108H119.279"/>
</mask>
<path d="M98.7793 53.6108V71.4108C98.7793 73.9108 100.979 75.9108 103.479 75.9108H119.279" fill="#D6DCE8"/>
<path d="M97.7793 53.6108V71.4108H99.7793V53.6108H97.7793ZM97.7793 71.4108C97.7793 74.5185 100.484 76.9108 103.479 76.9108V74.9108C101.474 74.9108 99.7793 73.3031 99.7793 71.4108H97.7793ZM103.479 76.9108H119.279V74.9108H103.479V76.9108Z" fill="#D6DCE8" mask="url(#path-9-inside-1_2103_279)"/>
<path d="M72.7299 47.6656L68.9482 41.9731" stroke="#A2ABBE" stroke-width="2"/>
<path d="M82.8155 44.8194L83.2598 30.3999" stroke="#A2ABBE" stroke-width="2"/>
<path d="M91.8569 47.7999L97.8936 34.6973" stroke="#A2ABBE" stroke-width="2"/>
<path d="M71.3213 119.279C71.0622 119.279 70.8377 119.185 70.5598 118.981C70.1906 118.586 70.1977 117.915 70.581 117.53C74.3518 113.842 79.3502 111.793 84.6793 111.793C90.0085 111.793 95.0069 113.842 98.7778 117.53C99.1688 117.923 99.1682 118.613 98.776 119.005C98.3832 119.398 97.6916 119.398 97.2988 119.005C93.9263 115.633 89.4295 113.818 84.6793 113.818C79.9415 113.818 75.4557 115.623 72.0861 118.979C71.8067 119.184 71.5814 119.279 71.3213 119.279Z" fill="#AAB2C5" stroke="#AAB2C5"/>
<path d="M76.2606 96.9102L75.907 97.2638L76.2606 97.6173L78.2769 99.6336C78.6619 100.019 78.6695 100.691 78.2998 101.087C78.0219 101.291 77.7973 101.384 77.5383 101.384C77.2098 101.384 77.0165 101.328 76.7997 101.111L74.7833 99.0946L74.4298 98.741L74.0762 99.0946L72.0859 101.085C71.8066 101.29 71.5813 101.384 71.3213 101.384C70.9929 101.384 70.7995 101.328 70.5827 101.111C70.1899 100.718 70.1899 100.026 70.5827 99.6336L72.599 97.6173L72.9526 97.2638L72.599 96.9102L70.5827 94.8939C70.1899 94.5011 70.1899 93.8095 70.5827 93.4167C70.9755 93.0239 71.6671 93.0239 72.0599 93.4167L74.0762 95.433L74.4298 95.7866L74.7833 95.433L76.7997 93.4167C77.1925 93.0239 77.884 93.0239 78.2769 93.4167L78.6304 93.0631L78.2769 93.4167C78.6697 93.8095 78.6697 94.5011 78.2769 94.8939L76.2606 96.9102Z" fill="#AAB2C5" stroke="#AAB2C5"/>
<path d="M96.6756 96.9102L96.3221 97.2638L96.6756 97.6173L98.6919 99.6336C99.0769 100.019 99.0846 100.691 98.7149 101.087C98.437 101.291 98.2124 101.384 97.9533 101.384C97.6248 101.384 97.4315 101.328 97.2147 101.111L95.1984 99.0946L94.8448 98.741L94.4913 99.0946L92.501 101.085C92.2217 101.29 91.9964 101.384 91.7364 101.384C91.4079 101.384 91.2145 101.328 90.9977 101.111C90.6049 100.718 90.6049 100.026 90.9977 99.6336L93.014 97.6173L93.3676 97.2638L93.014 96.9102L90.9977 94.8939L90.6509 95.2408L90.9977 94.8939C90.6049 94.5011 90.6049 93.8095 90.9977 93.4167C91.3906 93.0239 92.0821 93.0239 92.475 93.4167L94.4913 95.433L94.8448 95.7866L95.1984 95.433L97.2147 93.4167C97.6075 93.0239 98.2991 93.0239 98.6919 93.4167L99.0455 93.0631L98.6919 93.4167C99.0847 93.8095 99.0847 94.5011 98.6919 94.8939L96.6756 96.9102Z" fill="#AAB2C5" stroke="#AAB2C5"/>
</svg>
