<svg width="150" height="151" viewBox="0 0 150 151" fill="none" xmlns="http://www.w3.org/2000/svg">
<path d="M82.0496 150C110.05 150 132.75 127.3 132.75 99.2004C132.75 71.1004 109.95 48.4004 82.0496 48.4004C54.0496 48.4004 31.3496 71.1004 31.3496 99.2004C31.3496 127.3 54.0496 150 82.0496 150Z" fill="#F1F3F9" stroke="#D6DCE8" stroke-width="2" stroke-miterlimit="10"/>
<path d="M129.45 65.9002C131.714 65.9002 133.55 64.0646 133.55 61.8002C133.55 59.5358 131.714 57.7002 129.45 57.7002C127.185 57.7002 125.35 59.5358 125.35 61.8002C125.35 64.0646 127.185 65.9002 129.45 65.9002Z" fill="#F1F3F9"/>
<path d="M135.45 49.9003C136.997 49.9003 138.25 48.6467 138.25 47.1003C138.25 45.5539 136.997 44.3003 135.45 44.3003C133.904 44.3003 132.65 45.5539 132.65 47.1003C132.65 48.6467 133.904 49.9003 135.45 49.9003Z" fill="#F1F3F9"/>
<path d="M34.05 65.8002C35.5964 65.8002 36.85 64.5466 36.85 63.0002C36.85 61.4538 35.5964 60.2002 34.05 60.2002C32.5036 60.2002 31.25 61.4538 31.25 63.0002C31.25 64.5466 32.5036 65.8002 34.05 65.8002Z" fill="#F1F3F9"/>
<path d="M16.95 119.8C19.8219 119.8 22.15 117.472 22.15 114.6C22.15 111.729 19.8219 109.4 16.95 109.4C14.0781 109.4 11.75 111.729 11.75 114.6C11.75 117.472 14.0781 119.8 16.95 119.8Z" fill="#F1F3F9"/>
<path d="M119.55 73.8L120.35 138.2C120.35 140.4 118.55 142.1 116.35 142.1H53.5498C51.3498 142.1 49.5498 140.3 49.5498 138.2V55.4C49.5498 53.2 51.3498 51.5 53.5498 51.5H99.0498L119.55 73.8Z" fill="white" stroke="#D6DCE8" stroke-width="2" stroke-miterlimit="10"/>
<path d="M80.1502 128.7H77.8502C77.7183 128.7 77.4502 128.526 77.4502 128.1C77.4502 127.674 77.7184 127.5 77.8502 127.5H80.1502C80.282 127.5 80.5502 127.674 80.5502 128.1C80.5502 128.356 80.4779 128.507 80.4099 128.585C80.3452 128.66 80.2597 128.7 80.1502 128.7Z" fill="#D6DCE8" stroke="#D6DCE8"/>
<path d="M73.1496 128.7H59.7496C59.6178 128.7 59.3496 128.526 59.3496 128.1C59.3496 127.674 59.6178 127.5 59.7496 127.5H73.1496C73.2815 127.5 73.5496 127.674 73.5496 128.1C73.5496 128.356 73.4773 128.507 73.4093 128.585C73.3446 128.66 73.2591 128.7 73.1496 128.7Z" fill="#D6DCE8" stroke="#D6DCE8"/>
<path d="M90.2496 64.5004H60.1496C59.7258 64.5004 59.3496 64.1242 59.3496 63.7004C59.3496 63.2765 59.7258 62.9004 60.1496 62.9004H90.2496C90.6735 62.9004 91.0496 63.2765 91.0496 63.7004C91.0496 64.1242 90.6735 64.5004 90.2496 64.5004Z" fill="#D6DCE8" stroke="#D6DCE8"/>
<path d="M71.7496 71.7006H60.1496C59.7258 71.7006 59.3496 71.3244 59.3496 70.9006C59.3496 70.4767 59.7258 70.1006 60.1496 70.1006H71.6496C72.0735 70.1006 72.4496 70.4767 72.4496 70.9006C72.4496 71.1073 72.3598 71.3128 72.2116 71.4692C72.0604 71.6288 71.885 71.7006 71.7496 71.7006Z" fill="#D6DCE8" stroke="#D6DCE8"/>
<mask id="path-11-inside-1_2103_334" fill="white">
<path d="M99.5596 51.5V69.3C99.5596 71.8 101.76 73.8 104.26 73.8H120.06"/>
</mask>
<path d="M99.5596 51.5V69.3C99.5596 71.8 101.76 73.8 104.26 73.8H120.06" fill="#D6DCE8"/>
<path d="M98.5596 51.5V69.3H100.56V51.5H98.5596ZM98.5596 69.3C98.5596 72.4077 101.264 74.8 104.26 74.8V72.8C102.255 72.8 100.56 71.1923 100.56 69.3H98.5596ZM104.26 74.8H120.06V72.8H104.26V74.8Z" fill="#D6DCE8" mask="url(#path-11-inside-1_2103_334)"/>
<path d="M124.35 143.6C123.35 143.6 122.35 143.2 121.55 142.3L104.85 125.6L104.25 126C98.85 130 92.55 132.1 86.15 132.1C78.45 132.1 70.75 129 65.05 123.6C59.05 117.9 55.75 110.2 55.75 101.8C55.75 85.1 69.35 71.5 86.05 71.5C97.45 71.5 107.45 77.5 112.85 87.7C118.15 97.8 117.45 109.6 110.95 119.1L110.55 119.7L127.35 136.5C129.05 138.2 128.65 139.9 128.35 140.8C127.55 142.4 125.95 143.6 124.35 143.6ZM86.05 79.8C73.85 79.8 64.05 89.7 64.05 101.8C64.05 115.6 75.35 123.9 86.35 123.9C93.05 123.9 99.15 120.9 103.45 115.5C108.75 108.9 109.65 100 105.95 92.3C102.15 84.6 94.55 79.8 86.05 79.8Z" fill="#F1F3F9" stroke="#D6DCE8" stroke-width="2" stroke-miterlimit="10"/>
<path d="M78.4504 103.001C78.4504 104.024 77.5742 104.901 76.5504 104.901C75.5265 104.901 74.6504 104.024 74.6504 103.001C74.6504 101.977 75.5265 101.101 76.5504 101.101C77.5742 101.101 78.4504 101.977 78.4504 103.001Z" fill="#AAB2C5" stroke="#AAB2C5"/>
<path d="M96.8498 103.001C96.8498 104.024 95.9737 104.901 94.9498 104.901C93.9122 104.901 93.0498 104.111 93.0498 103.001C93.0498 101.977 93.9259 101.101 94.9498 101.101C95.9737 101.101 96.8498 101.977 96.8498 103.001Z" fill="#AAB2C5" stroke="#AAB2C5"/>
<path d="M72.0918 98.5535L71.8543 98.1135L76.2538 95.738L76.4913 96.178L72.0918 98.5535Z" fill="#AAB2C5" stroke="#AAB2C5"/>
<path d="M98.9886 98.5148L94.5886 96.1398L94.8261 95.6998L99.2261 98.0748L98.9886 98.5148Z" fill="#AAB2C5" stroke="#AAB2C5"/>
<path d="M88.0502 108.901C88.0502 109.288 87.8421 109.677 87.4301 109.986C87.018 110.295 86.4257 110.501 85.7502 110.501C85.0747 110.501 84.4824 110.295 84.0703 109.986C83.6583 109.677 83.4502 109.288 83.4502 108.901C83.4502 108.514 83.6583 108.125 84.0703 107.816C84.4824 107.507 85.0747 107.301 85.7502 107.301C86.4257 107.301 87.018 107.507 87.4301 107.816C87.8421 108.125 88.0502 108.514 88.0502 108.901Z" fill="#AAB2C5" stroke="#AAB2C5"/>
</svg>
